<svg width="226" height="40" fill="none" xmlns="http://www.w3.org/2000/svg"><path d="M30.072 6.761l19.154 4.876v-4.93L30.072.014V6.76zm0 9.253l19.154 1.724v-4.943L30.072 8.943v7.07zM18.027 23.96l31.24-.027V18.99l-31.24-1.495v6.465zm.027 8.027l31.173-1.751v-4.943l-31.186.39.013 6.304zM18.081 40l31.16-3.354v-4.942l-31.186 1.98L18.08 40z" fill="#A28800"/><path d="M29.429 16.027a67.005 67.005 0 00-15.667-.256C4.024 16.619 0 18.114 0 18.114v-5.252a63.511 63.511 0 0113.856-3.273 84.537 84.537 0 0115.573-.633v7.07zm-.014-9.293c-5.24-.2-10.485.148-15.653 1.037A64.539 64.539 0 000 11.434V6.505a139.724 139.724 0 0113.856-4.58A69.934 69.934 0 0129.416 0v6.734zM17.437 33.67C10.06 32.323 0 31.623 0 31.623v4.93l17.437 3.393V33.67zm0-7.986A71.858 71.858 0 000 25.589v4.984a128.72 128.72 0 0117.343 1.346h.094v-6.235zm0-8.176C9.926 17.131 0 19.502 0 19.502v4.929a121.28 121.28 0 0117.343-.418h.094v-6.505z" fill="#572700"/><path d="M59.622 9.967V24.31h-3.836V7.69h8.276v2.277h-4.44zm11.629 7.783c-.502 0-1.004-.03-1.502-.093v6.653h-3.85V7.92a46.159 46.159 0 015.03-.337c4.668 0 6.197 2.249 6.197 4.767 0 3.273-1.945 5.4-5.875 5.4zm-.523-7.918a4.302 4.302 0 00-.992.107v5.684c.327.062.66.094.992.094 2.307 0 2.683-1.562 2.683-3.151a2.406 2.406 0 00-.66-2.041 2.386 2.386 0 00-2.023-.693zm8.517 14.478V7.69h8.786v2.277h-4.963v4.498h4.024v2.182h-4.024v5.387h5.15v2.263l-8.973.013zm23.635 0V12.916l-4.44 10.06h-.966L93.115 12.89v11.42h-2.843V7.69h4.506l4.024 8.903 3.904-8.903h4.024v16.62h-3.85zm14.124 0v-7.017h-.309c-.737 0-1.502.135-2.347 2.545l-1.542 4.472h-4.159l1.825-3.96c1.153-2.532 1.757-3.11 2.682-3.596v-.134a3.936 3.936 0 01-2.589-1.381 3.968 3.968 0 01-.925-2.795c0-2.922 1.918-4.861 6.184-4.861.992 0 4.962.107 4.962.107v16.62h-3.782zm0-14.344a4.006 4.006 0 00-1.14-.12 2.551 2.551 0 00-1.857.847 2.574 2.574 0 00-.651 1.94 2.446 2.446 0 002.333 2.694h1.342l-.027-5.36zm14.231 14.344v-7.758a5.794 5.794 0 01-3.756 1.347c-4.292 0-4.024-3.663-4.024-4.552V7.69h3.837v4.822c0 1.724.228 2.896 1.743 2.896a2.14 2.14 0 002.146-1.347V7.69h3.837v16.62h-3.783zm16.002 0V12.499l-5.365 11.811h-3.903V7.69h3.836v11.287L147.17 7.69h3.89v16.62h-3.823zm15.143 0v-7.394h-4.694v7.394h-3.836V7.69h3.836v6.87h4.694V7.69h3.823v16.62h-3.823zm16.982-12.566a3.88 3.88 0 00-3.273-1.98c-1.341 0-3.232 1.414-3.232 6.25 0 4.377 1.663 5.818 3.46 5.818a5.27 5.27 0 003.461-1.064l.899 1.764a7.38 7.38 0 01-5.513 2.128c-2.401 0-6.237-1.9-6.237-8.458 0-6.869 4.359-8.714 7.39-8.714a6.163 6.163 0 014.762 1.845l-1.717 2.411zm11.723 12.566l-1.985-5.387c-.698-1.9-1.033-2.182-1.825-2.182h-.375v7.529h-3.823V7.69h3.823v7.125h.375c.899 0 1.127-.862 1.825-2.505l.965-2.317a3.031 3.031 0 011.195-1.742 3.007 3.007 0 012.038-.534h1.113v2.734h-.348c-.966 0-1.342 1.159-1.918 2.761-.577 1.603-.872 1.926-1.704 2.276v.135c.738.229 1.341.768 2.24 2.694l2.683 5.953-4.279.04zm15.238 0V12.499l-5.365 11.811h-3.903V7.69h3.836v11.287l5.365-11.287h3.877v16.62h-3.81zm15.854 0V12.498l-5.366 11.812h-3.903V7.69h3.836v11.286L222.11 7.69h3.876v16.62h-3.809zm-2.589-16.62a3.554 3.554 0 01-2.728-.909 3.576 3.576 0 01-1.175-2.633h2.428a1.466 1.466 0 001.475 1.347 1.34 1.34 0 001.475-1.347h2.428a3.719 3.719 0 01-2.464 3.335 3.693 3.693 0 01-1.439.207zM60.614 36.364l-.107-1.347h-3.81l-.107 1.347h-.724v-2.088h.47a3.482 3.482 0 00.805-1.953c.136-.765.212-1.54.227-2.316v-.768h3.34v5.024h.604v2.1h-.697zm-.844-6.384h-1.583v.687c-.036.607-.117 1.21-.242 1.805a5.825 5.825 0 01-.603 1.777h2.481l-.053-4.269zm3.42 2.114c0 1.764.939 2.29 1.797 2.29a2.341 2.341 0 001.435-.512l.282.58a3.143 3.143 0 01-2.052.686c-1.22 0-2.455-.93-2.455-2.976 0-2.317 1.53-3.004 2.415-3.004 1.502 0 2.186.97 2.186 2.694v.242H63.19zm2.683-.916a1.231 1.231 0 00-.706-1.235 1.217 1.217 0 00-.488-.111c-.322 0-1.18.148-1.342 1.575h2.576l-.04-.229zm4.237 4.041a1.552 1.552 0 01-1.34-.54v3.031h-.94v-7.03c-.003-.45-.03-.9-.08-1.347l.912-.094.107.902a2.003 2.003 0 011.744-.956c1.22 0 2.173.875 2.173 2.788.067 2.276-1.355 3.246-2.575 3.246zm.215-5.28c-1.14 0-1.489 1.078-1.489 2.047v1.347a1.216 1.216 0 00.842 1.15c.161.05.332.068.5.049.925 0 1.596-.606 1.596-2.56-.013-1.48-.684-2.033-1.449-2.033zm4.427 2.155c0 1.764.94 2.29 1.798 2.29a2.341 2.341 0 001.435-.512l.282.58a3.144 3.144 0 01-2.053.686c-1.22 0-2.454-.93-2.454-2.976 0-2.317 1.529-3.004 2.414-3.004 1.502 0 2.2.97 2.2 2.694v.242h-3.622zm2.683-.916a1.245 1.245 0 00-.717-1.235 1.23 1.23 0 00-.49-.111c-.322 0-1.18.148-1.341 1.575h2.588l-.04-.229zm3.769 3.839H79.46v-5.765h1.596c1.046 0 2.415 0 2.415 1.347a1.35 1.35 0 01-1.074 1.347v.08a1.255 1.255 0 011.22 1.266c.001 1.334-1.26 1.725-2.413 1.725zm0-5.078a4.01 4.01 0 00-.738.081v1.724h.872c.979 0 1.207-.444 1.207-1.05 0-.607-1.113-.741-1.395-.741l.054-.014zm.08 2.384h-.805v1.9c.28.097.577.134.872.107 1.207 0 1.342-.727 1.342-1.091-.054-.7-.644-.916-1.409-.916zm5.648 2.896c-1.342 0-2.428-1.01-2.428-3.057 0-2.6 1.596-3.004 2.468-3.004.872 0 2.508.418 2.508 3.004 0 2.047-1.234 3.057-2.548 3.057zm0-5.387c-.537 0-1.462.161-1.462 2.303 0 1.575.657 2.343 1.462 2.343.805 0 1.596-.74 1.596-2.316 0-2.142-1.033-2.303-1.556-2.303l-.04-.027zm5.928 5.387c-1.34 0-2.427-1.01-2.427-3.057 0-2.6 1.596-3.004 2.468-3.004.871 0 2.508.418 2.508 3.004 0 2.047-1.234 3.057-2.549 3.057zm0-5.387c-.536 0-1.462.161-1.462 2.303 0 1.575.658 2.343 1.462 2.343.805 0 1.503-.768 1.503-2.343.04-2.115-.94-2.276-1.462-2.276l-.04-.027zm5.902 5.374c-1.341 0-2.374-.957-2.374-3.327 0-2.034.08-4.148 2.119-5.037.67-.296 1.945-.458 2.388-.74v1.01c-.497.322-1.73.417-2.415.74a2.473 2.473 0 00-1.341 2.209h.094a2.056 2.056 0 011.77-.916c.845 0 2.321.323 2.321 2.922a2.812 2.812 0 01-.607 2.125 2.78 2.78 0 01-1.955 1.014zm.147-5.388c-.375 0-1.515.068-1.515 2.223 0 1.67.63 2.437 1.421 2.437.792 0 1.556-.767 1.556-2.343 0-2.115-.938-2.29-1.462-2.29v-.027zm5.888 5.401a1.552 1.552 0 01-1.274-.54v3.031h-.952v-7.03c.004-.45-.023-.9-.081-1.347l.926-.094.107.902a1.999 1.999 0 011.744-.956c1.207 0 2.173.875 2.173 2.788 0 2.276-1.476 3.246-2.643 3.246zm.215-5.28c-1.154 0-1.489 1.078-1.489 2.047v1.347a1.214 1.214 0 00.841 1.15c.162.05.332.068.5.049.912 0 1.597-.606 1.597-2.56-.014-1.48-.671-2.033-1.449-2.033zm7.11 5.078a3.004 3.004 0 01-.228-.89 1.964 1.964 0 01-1.865 1.01 1.485 1.485 0 01-1.429-1.043 1.49 1.49 0 01-.059-.626c0-1.724 1.421-1.953 2.293-1.98h1.06v-.39c0-1.024-.496-1.186-.979-1.186a2.363 2.363 0 00-1.637.835l-.442-.74a3.517 3.517 0 012.24-.795c1.757 0 1.757 1.212 1.757 1.94v.807a9.058 9.058 0 00.174 3.058h-.885zm-.282-2.99h-.818c-.711 0-1.556.134-1.556 1.198 0 .755.362 1.132.885 1.132.993 0 1.489-1.091 1.489-1.778v-.552zm4.587 3.179c-1.341 0-2.374-.957-2.374-3.327 0-2.034 0-4.148 2.106-5.037.67-.296 1.945-.458 2.387-.74l.067 1.01c-.483.322-1.73.417-2.401.74a2.538 2.538 0 00-1.341 2.209h.107a2.057 2.057 0 011.717-.916c.832 0 2.321.323 2.321 2.922a2.815 2.815 0 01-.621 2.13 2.79 2.79 0 01-1.968 1.008zm.134-5.388c-.376 0-1.502.068-1.502 2.223 0 1.67.63 2.437 1.341 2.437s1.636-.74 1.636-2.316c0-2.142-.952-2.317-1.475-2.317v-.027zm7.136 5.199a3.004 3.004 0 01-.228-.89 1.973 1.973 0 01-1.864 1.01 1.484 1.484 0 01-1.43-1.043 1.49 1.49 0 01-.059-.626c0-1.724 1.422-1.953 2.307-1.98h1.046v-.39c0-1.024-.496-1.186-.966-1.186a2.317 2.317 0 00-1.636.835l-.443-.74a3.454 3.454 0 012.227-.795c1.757 0 1.757 1.212 1.757 1.94v.807a9.058 9.058 0 00.174 3.058h-.885zm-.295-2.977h-.818c-.711 0-1.556.135-1.556 1.199 0 .754.362 1.131.885 1.131.993 0 1.489-1.09 1.489-1.777v-.553zm4.426-2.033v5.01h-.952v-5.01h-1.569v-.755h4.024v.755h-1.503zm4.226 5.01h-1.731v-5.765h.953v2.29s.59-.08.912-.08c1.757 0 2.226.807 2.226 1.696 0 1.347-1.194 1.859-2.36 1.859zm0-2.95h-.778v2.182h.858c1.087 0 1.274-.606 1.274-1.199 0-.727-.536-.97-1.354-.97v-.013zm3.031 2.95v-5.765h.952v5.765h-.952zm4.171 0h-1.743v-5.765h1.596c1.046 0 2.414 0 2.414 1.347a1.347 1.347 0 01-1.086 1.347v.08a1.242 1.242 0 011.144.786c.061.153.092.316.09.48 0 1.334-1.261 1.725-2.415 1.725zm0-5.078a4.294 4.294 0 00-.751.081v1.724h.886c.979 0 1.207-.444 1.207-1.05 0-.607-1.1-.741-1.395-.741l.053-.014zm.135 2.398h-.886v1.899c.285.096.586.133.886.107 1.207 0 1.341-.727 1.341-1.09-.04-.714-.644-.93-1.395-.93l.054.014zm6.814 2.68a3.004 3.004 0 01-.228-.89 1.964 1.964 0 01-1.865 1.01 1.485 1.485 0 01-1.429-1.043 1.49 1.49 0 01-.059-.626c0-1.724 1.421-1.953 2.307-1.98h1.046v-.39c0-1.024-.496-1.186-.966-1.186a2.315 2.315 0 00-1.636.835l-.456-.74a3.517 3.517 0 012.24-.795c1.77 0 1.77 1.212 1.77 1.94v.807a9.154 9.154 0 00.215 3.125l-.939-.067zm-.282-2.99h-.818c-.711 0-1.556.134-1.556 1.198 0 .755.362 1.132.885 1.132.993 0 1.489-1.091 1.489-1.778v-.552zm6.988 3.179c-1.341 0-2.374-.943-2.441-2.856h-1.167v2.694h-.939v-5.791h.939v2.464h1.181c.268-2.127 1.649-2.572 2.468-2.572.818 0 2.494.431 2.494 3.017.014 2.047-1.193 3.044-2.535 3.044zm0-5.388c-.536 0-1.489.175-1.489 2.317 0 1.576.685 2.343 1.489 2.343.805 0 1.489-.767 1.489-2.343.054-2.115-.925-2.29-1.489-2.29v-.027zm10.838 6.546l-.107-1.347h-6.961v-5.765h.939v5.024h2.105v-5.024h.953v5.024h2.106v-5.024h.939v5.024h.751v2.088h-.725zm5.419-1.347v-4.472l-2.682 4.485h-.953v-5.778h.953v4.418l2.682-4.458h.939v5.805h-.939zm6.049 0v-4.471l-2.682 4.485h-.939v-5.778h.939v4.417l2.682-4.458h.953v5.805h-.953zm-1.341-6.397a1.506 1.506 0 01-1.164-.386 1.526 1.526 0 01-.499-1.123h.818a.874.874 0 00.899.808.837.837 0 00.618-.214.858.858 0 00.28-.594h.751a1.558 1.558 0 01-1.032 1.439c-.198.07-.408.098-.617.083l-.054-.013zm9.792 6.397l-.819-1.697c-.375-.755-.67-.916-1.167-.916h-.389v2.613h-.939v-5.765h.939v2.519h.269c.59 0 .737-.216 1.059-.943l.269-.62a1.569 1.569 0 011.556-1.023v.848c-.336 0-.725 0-1.087.957a1.464 1.464 0 01-.791.956v.067a1.858 1.858 0 011.073 1.037l1.019 1.98-.992-.013zm3.97.202c-1.342 0-2.428-1.01-2.428-3.057 0-2.6 1.61-3.004 2.481-3.004.872 0 2.495.418 2.495 3.004 0 2.047-1.234 3.057-2.548 3.057zm0-5.387c-.537 0-1.476.161-1.476 2.303 0 1.575.671 2.343 1.476 2.343.805 0 1.489-.768 1.489-2.343 0-2.115-.926-2.276-1.436-2.276l-.053-.027zm8.692 5.185v-4.256l-1.878 3.637h-.268l-1.945-3.637v4.256h-.832l.121-5.778h.939l2.012 3.758 1.878-3.758h.818l.121 5.778h-.966zm4.533.189c-1.341 0-2.374-.957-2.374-3.327 0-2.034.067-4.148 2.106-5.037.671-.296 1.945-.458 2.388-.74v1.01c-.483.322-1.731.417-2.401.74-.401.213-.737.53-.973.92a2.549 2.549 0 00-.369 1.289h.108a2.05 2.05 0 011.77-.916c.832 0 2.321.323 2.321 2.922a2.818 2.818 0 01-.616 2.125 2.79 2.79 0 01-1.96 1.014zm.135-5.388c-.376 0-1.503.068-1.503 2.223 0 1.67.631 2.437 1.409 2.437s1.556-.767 1.556-2.343c0-2.115-.939-2.29-1.462-2.29v-.027zm7.337 5.199v-4.472l-2.682 4.485h-.953v-5.778h.953v4.418l2.682-4.458h.939v5.805h-.939zm5.794 0v-2.694h-2.455v2.694h-.939v-5.765h.939v2.411h2.455v-2.41h.952v5.764h-.952zm5.848 0a3.004 3.004 0 01-.228-.89 1.968 1.968 0 01-1.864 1.01 1.485 1.485 0 01-1.43-1.043 1.49 1.49 0 01-.059-.626c0-1.724 1.422-1.953 2.294-1.98h1.059v-.39c0-1.024-.496-1.186-.979-1.186a2.368 2.368 0 00-1.636.835l-.443-.74a3.519 3.519 0 012.24-.795c1.757 0 1.757 1.212 1.757 1.94v.807a9.057 9.057 0 00.228 3.125l-.939-.067zm-.281-2.99h-.819c-.71 0-1.555.134-1.555 1.198 0 .755.362 1.132.885 1.132.992 0 1.489-1.091 1.489-1.778v-.552zm4.453-2.02v5.01h-.953v-5.01h-1.569v-.755h4.024v.755h-1.502z" fill="#fff"/></svg>