<svg width="21" height="21" fill="none" xmlns="http://www.w3.org/2000/svg"><path fill-rule="evenodd" clip-rule="evenodd" d="M17.5 2.625h-14A2.623 2.623 0 00.884 5.25l-.009 10.5A2.63 2.63 0 003.5 18.374h14a2.63 2.63 0 002.625-2.625V5.25A2.63 2.63 0 0017.5 2.625zM4.799 7.875a.875.875 0 01.903-1.499l4.772 2.876 4.98-3a.876.876 0 01.907 1.5l-5.852 3.551-.006.01L4.8 7.874z" fill="#0E9E2F"/><mask id="a" style="mask-type:luminance" maskUnits="userSpaceOnUse" x="0" y="2" width="21" height="17"><path fill-rule="evenodd" clip-rule="evenodd" d="M17.5 2.625h-14A2.623 2.623 0 00.884 5.25l-.009 10.5A2.63 2.63 0 003.5 18.374h14a2.63 2.63 0 002.625-2.625V5.25A2.63 2.63 0 0017.5 2.625zM4.799 7.875a.875.875 0 01.903-1.499l4.772 2.876 4.98-3a.876.876 0 01.907 1.5l-5.852 3.551-.006.01L4.8 7.874z" fill="#fff"/></mask><g mask="url(#a)"><path fill="#0E9E2F" d="M0 0h21v21H0z"/></g></svg>