<svg width="83" height="148" fill="none" xmlns="http://www.w3.org/2000/svg"><mask id="a" fill="#fff"><path fill-rule="evenodd" clip-rule="evenodd" d="M67 5l-6-5-6 5H4a4 4 0 00-4 4v135a4 4 0 004 4h75a4 4 0 004-4V9a4 4 0 00-4-4H67z"/></mask><path fill-rule="evenodd" clip-rule="evenodd" d="M67 5l-6-5-6 5H4a4 4 0 00-4 4v135a4 4 0 004 4h75a4 4 0 004-4V9a4 4 0 00-4-4H67z" fill="#fff"/><path d="M61 0l.64-.768-.64-.534-.64.534L61 0zm6 5l-.64.768.278.232H67V5zM55 5v1h.362l.278-.232L55 5zM60.36.768l6 5 1.28-1.536-6-5L60.36.768zm-4.72 5l6-5-1.28-1.536-6 5 1.28 1.536zM4 6h51V4H4v2zM1 9a3 3 0 013-3V4a5 5 0 00-5 5h2zm0 135V9h-2v135h2zm3 3a3 3 0 01-3-3h-2a5 5 0 005 5v-2zm75 0H4v2h75v-2zm3-3a3 3 0 01-3 3v2a5 5 0 005-5h-2zM82 9v135h2V9h-2zm-3-3a3 3 0 013 3h2a5 5 0 00-5-5v2zM67 6h12V4H67v2z" fill="#F1F1F1" mask="url(#a)"/></svg>