<svg width="65" height="65" fill="none" xmlns="http://www.w3.org/2000/svg"><circle cx="34" cy="35" r="26" fill="#fff"/><path fill-rule="evenodd" clip-rule="evenodd" d="M32.5 65C14.55 65 0 50.45 0 32.5S14.55 0 32.5 0 65 14.55 65 32.5 50.45 65 32.5 65zm1.071-14.418c10.655-.005 19.321-8.673 19.326-19.326a19.209 19.209 0 00-5.655-13.672 19.2 19.2 0 00-13.67-5.667c-10.653 0-19.322 8.669-19.327 19.324a19.29 19.29 0 002.58 9.661l-2.742 10.015 10.245-2.688a19.31 19.31 0 009.235 2.353h.008z" fill="#0E9E2F"/><path fill-rule="evenodd" clip-rule="evenodd" d="M24.803 44.73l-6.08 1.595 1.624-5.927-.382-.608a16.023 16.023 0 01-2.456-8.548c.003-8.856 7.209-16.061 16.07-16.061a15.953 15.953 0 0111.355 4.71 15.966 15.966 0 014.7 11.364c-.003 8.857-7.209 16.063-16.062 16.063h-.007a16.038 16.038 0 01-8.175-2.24l-.587-.347zm18.505-8.878c-.12-.202-.443-.323-.926-.564-.482-.242-2.856-1.41-3.3-1.571-.442-.161-.764-.242-1.086.241-.322.484-1.247 1.571-1.529 1.894-.281.322-.563.362-1.046.12-.483-.241-2.038-.751-3.883-2.396-1.436-1.28-2.405-2.862-2.686-3.345-.282-.484-.03-.745.212-.986.217-.216.482-.564.724-.846.241-.282.322-.483.483-.805.16-.323.08-.605-.04-.846-.121-.242-1.087-2.619-1.49-3.586-.391-.941-.79-.814-1.086-.829a19.224 19.224 0 00-.925-.017c-.322 0-.845.121-1.288.605-.443.483-1.69 1.651-1.69 4.028s1.73 4.673 1.972 4.995c.241.323 3.405 5.2 8.249 7.291 1.152.498 2.051.795 2.752 1.017 1.157.368 2.21.316 3.042.192.928-.139 2.857-1.168 3.26-2.296.401-1.128.401-2.095.28-2.296z" fill="#0E9E2F"/></svg>