<svg width="20" height="20" viewBox="0 0 20 20" fill="none" xmlns="http://www.w3.org/2000/svg">
<path d="M16.7443 19.4401L10 12.6979L3.25569 19.4401C2.89869 19.7985 2.41375 20 1.90789 20C1.40203 20 0.916952 19.7985 0.559945 19.4401C0.201518 19.0831 0 18.598 0 18.0921C0 17.5863 0.201518 17.1013 0.559945 16.7443L7.30205 10L0.559945 3.25569C0.201518 2.89869 0 2.41375 0 1.90789C0 1.40203 0.201518 0.916952 0.559945 0.559945C0.916941 0.201518 1.40203 0 1.90789 0C2.41375 0 2.89868 0.201518 3.25569 0.559945L10 7.30205L16.7443 0.559945C17.1013 0.201518 17.5862 0 18.0921 0C18.598 0 19.083 0.201518 19.4401 0.559945C19.7985 0.916941 20 1.40203 20 1.90789C20 2.41375 19.7985 2.89868 19.4401 3.25569L12.6979 10L19.4401 16.7443C19.7985 17.1013 20 17.5863 20 18.0921C20 18.598 19.7985 19.083 19.4401 19.4401C19.0831 19.7985 18.598 20 18.0921 20C17.5862 20 17.1013 19.7985 16.7443 19.4401Z" fill="#0E9E2F"/>
</svg>
