<svg width="141" height="24" viewBox="0 0 141 24" fill="none" xmlns="http://www.w3.org/2000/svg">
<path d="M18.7617 4.05679L30.7119 6.98204V4.02446L18.7617 0.00830078V4.05679Z" fill="#0E9E2F"/>
<path d="M18.7617 9.60815L30.7119 10.6425V7.67683L18.7617 5.36572V9.60815Z" fill="#0E9E2F"/>
<path d="M11.2471 14.3759L30.7372 14.3597V11.394L11.2471 10.4971V14.3759Z" fill="#0E9E2F"/>
<path d="M11.2642 19.1919L30.7125 18.1414V15.1758L11.2559 15.4101L11.2642 19.1919Z" fill="#0E9E2F"/>
<path d="M11.2804 24.0002L30.7203 21.9881V19.0225L11.2637 20.2103L11.2804 24.0002Z" fill="#0E9E2F"/>
<path d="M18.3604 9.61632C15.1196 9.19772 11.8392 9.14619 8.58603 9.46278C2.51053 9.97188 0 10.8688 0 10.8688V7.71733C2.79655 6.75311 5.69617 6.09446 8.64461 5.75369C11.8643 5.33964 15.1166 5.2125 18.3604 5.3739V9.61632Z" fill="white"/>
<path d="M18.352 4.0404C15.0832 3.92092 11.8103 4.12944 8.58603 4.66263C5.64905 5.08828 2.76963 5.82539 0 6.86061L0 3.90303C2.83018 2.8429 5.71563 1.92583 8.64461 1.15556C11.8256 0.421616 15.0817 0.0340152 18.352 0V4.0404Z" fill="white"/>
<path d="M10.879 20.2019C6.27634 19.3938 0 18.9736 0 18.9736V21.9312L10.879 23.9676V20.2019Z" fill="white"/>
<path d="M10.879 15.4099C7.26836 14.9665 3.61536 14.9475 0 15.3534L0 18.3433C3.6215 18.3777 7.23649 18.6477 10.8204 19.1514H10.879V15.4099Z" fill="white"/>
<path d="M10.879 10.5049C6.19265 10.2786 0 11.7008 0 11.7008V14.6584C3.59603 14.3263 7.21203 14.2426 10.8204 14.4079H10.879V10.5049Z" fill="white"/>
<path d="M37.1981 5.97991V14.586H34.8047V4.61426H39.968V5.97991H37.1981Z" fill="white"/>
<path d="M44.4533 10.6503C44.1399 10.6501 43.8269 10.6313 43.516 10.5938V14.5857H41.1143V4.75134C42.1557 4.62907 43.2034 4.56163 44.2524 4.54932C47.1646 4.54932 48.1187 5.89881 48.1187 7.40992C48.1187 9.37356 46.9052 10.6503 44.4533 10.6503ZM44.1269 5.89881C43.9186 5.89717 43.7108 5.91887 43.5076 5.96346V9.37356C43.7118 9.41093 43.9191 9.42987 44.1269 9.43012C45.5663 9.43012 45.8006 8.49275 45.8006 7.53922C45.8352 7.31823 45.816 7.0925 45.7446 6.87992C45.6731 6.66735 45.5513 6.47377 45.3889 6.31457C45.2264 6.15536 45.0278 6.03489 44.8088 5.96272C44.5897 5.89056 44.3562 5.86867 44.1269 5.89881Z" fill="white"/>
<path d="M49.4404 14.586V4.61426H54.9218V5.97991H51.8254V8.6789H54.336V9.98799H51.8254V13.2203H55.0389V14.5779L49.4404 14.586Z" fill="white"/>
<path d="M64.1857 14.586V7.74961L61.4157 13.786H60.8132L58.0934 7.73345V14.586H56.3193V4.61426H59.1311L61.6417 9.95567L64.0769 4.61426H66.5874V14.586H64.1857Z" fill="white"/>
<path d="M72.9977 14.5857V10.3756H72.8053C72.345 10.3756 71.868 10.4564 71.3408 11.9029L70.3784 14.5857H67.7842L68.9223 12.2099C69.642 10.6907 70.0186 10.3433 70.596 10.0523V9.97154C69.9671 9.90617 69.3885 9.60945 68.9802 9.14298C68.5719 8.67651 68.3654 8.07613 68.4034 7.46649C68.4034 5.71295 69.6001 4.54932 72.2613 4.54932C72.8806 4.54932 75.3576 4.61396 75.3576 4.61396V14.5857H72.9977ZM72.9977 5.97962C72.7654 5.92272 72.5259 5.89823 72.2864 5.90689C72.0676 5.91057 71.8519 5.95761 71.6526 6.04509C71.4534 6.13257 71.2749 6.25863 71.1282 6.41545C70.9815 6.57228 70.8697 6.75652 70.7997 6.95678C70.7298 7.15703 70.7031 7.36902 70.7215 7.57962C70.7008 7.77929 70.7226 7.98094 70.7856 8.17216C70.8487 8.36338 70.9515 8.54012 71.0879 8.69151C71.2243 8.84291 71.3914 8.96574 71.5788 9.05246C71.7662 9.13919 71.97 9.18796 72.1776 9.19578H73.0145L72.9977 5.97962Z" fill="white"/>
<path d="M81.8772 14.586V9.93143C81.2194 10.4594 80.3894 10.7456 79.5341 10.7395C76.8562 10.7395 77.0236 8.54153 77.0236 8.0082V4.61426H79.4169V7.50719C79.4169 8.54153 79.5592 9.24456 80.5048 9.24456C80.7879 9.26427 81.0701 9.19663 81.3108 9.05138C81.5514 8.90614 81.7381 8.69081 81.8438 8.43648V4.61426H84.2372V14.586H81.8772Z" fill="white"/>
<path d="M91.8607 14.586V7.49911L88.5133 14.586H86.0781V4.61426H88.4715V11.386L91.8189 4.61426H94.2457V14.586H91.8607Z" fill="white"/>
<path d="M101.309 14.586V10.1496H98.3797V14.586H95.9863V4.61426H98.3797V8.73547H101.309V4.61426H103.694V14.586H101.309Z" fill="white"/>
<path d="M111.903 7.04643C111.697 6.69552 111.401 6.40181 111.044 6.19371C110.686 5.98562 110.279 5.87017 109.861 5.85855C109.024 5.85855 107.845 6.70703 107.845 9.60804C107.845 12.2343 108.882 13.099 110.004 13.099C110.779 13.1382 111.543 12.9121 112.163 12.4606L112.723 13.5192C112.271 13.9485 111.733 14.2834 111.141 14.503C110.549 14.7227 109.917 14.8224 109.284 14.7959C107.786 14.7959 105.393 13.6565 105.393 9.72118C105.393 5.59996 108.112 4.49289 110.004 4.49289C110.552 4.46262 111.1 4.54572 111.613 4.73664C112.125 4.92756 112.589 5.22189 112.974 5.59996L111.903 7.04643Z" fill="white"/>
<path d="M119.217 14.586L117.978 11.3537C117.543 10.2143 117.334 10.0446 116.84 10.0446H116.606V14.5617H114.221V4.61426H116.606V8.889H116.84C117.401 8.889 117.543 8.37183 117.978 7.38597L118.581 5.99608C118.691 5.57249 118.955 5.20138 119.326 4.95061C119.696 4.69985 120.147 4.58619 120.597 4.63042H121.292V6.27082H121.074C120.472 6.27082 120.238 6.96577 119.878 7.92739C119.518 8.889 119.334 9.08294 118.815 9.29305V9.37385C119.275 9.51123 119.652 9.83446 120.213 10.99L121.886 14.5617L119.217 14.586Z" fill="white"/>
<path d="M128.723 14.586V7.49911L125.376 14.586H122.94V4.61426H125.334V11.386L128.681 4.61426H131.1V14.586H128.723Z" fill="white"/>
<path d="M138.615 14.5857V7.49887L135.267 14.5857H132.832V4.61402H135.225V11.3857L138.573 4.61402H140.991V14.5857H138.615ZM137 4.61402C136.692 4.64204 136.382 4.60804 136.089 4.51417C135.796 4.4203 135.527 4.26861 135.298 4.06875C135.069 3.86889 134.885 3.62522 134.759 3.35322C134.633 3.08122 134.566 2.78684 134.564 2.48877H136.079C136.098 2.71095 136.204 2.91789 136.374 3.06786C136.545 3.21782 136.769 3.29966 137 3.29685C137.116 3.30818 137.234 3.29569 137.346 3.26018C137.457 3.22467 137.559 3.16695 137.646 3.09075C137.733 3.01455 137.802 2.92159 137.849 2.81788C137.897 2.71417 137.921 2.60204 137.92 2.48877H139.435C139.421 2.7832 139.347 3.07204 139.216 3.33861C139.086 3.60518 138.903 3.84418 138.676 4.0418C138.45 4.23942 138.185 4.39174 137.897 4.48996C137.609 4.58818 137.304 4.63035 137 4.61402Z" fill="white"/>
<path d="M37.8169 21.8182L37.75 21.0101H35.3733L35.3064 21.8182H34.8545V20.5657H35.1474C35.4367 20.2349 35.6122 19.8254 35.6495 19.394C35.7346 18.935 35.7822 18.4702 35.7918 18.0041V17.5435H37.8755V20.5576H38.2521V21.8182H37.8169ZM37.2897 17.9879H36.3022V18.4C36.28 18.7641 36.2296 19.126 36.1516 19.4829C36.0869 19.8558 35.9597 20.2161 35.775 20.5495H37.3232L37.2897 17.9879Z" fill="white"/>
<path d="M39.424 19.2567C39.424 20.3153 40.0097 20.6305 40.5453 20.6305C40.8709 20.6271 41.1859 20.519 41.4408 20.3234L41.6165 20.6709C41.2534 20.9498 40.7999 21.0958 40.3361 21.083C39.5746 21.083 38.8047 20.5254 38.8047 19.2971C38.8047 17.9072 39.7587 17.4951 40.311 17.4951C41.2483 17.4951 41.6751 18.0769 41.6751 19.1113V19.2567H39.424ZM41.0976 18.7072C41.1081 18.6061 41.0967 18.5039 41.0641 18.4073C41.0316 18.3106 40.9787 18.2215 40.9087 18.1455C40.8387 18.0696 40.7532 18.0085 40.6575 17.9661C40.5618 17.9237 40.4581 17.9009 40.3529 17.8992C40.152 17.8992 39.6164 17.988 39.516 18.8446H41.1228L41.0976 18.7072Z" fill="white"/>
<path d="M43.7414 21.1312C43.5852 21.1467 43.4275 21.1253 43.2818 21.069C43.136 21.0127 43.0066 20.9232 42.9046 20.808V22.6261H42.3188V18.408C42.3167 18.1379 42.3 17.8682 42.2686 17.5999L42.8376 17.5433L42.9046 18.0847C43.0183 17.9058 43.1786 17.7587 43.3694 17.6581C43.5603 17.5574 43.7751 17.5067 43.9925 17.511C44.754 17.511 45.3481 18.0362 45.3481 19.1837C45.39 20.5494 44.5029 21.1312 43.7414 21.1312ZM43.8753 17.9635C43.164 17.9635 42.9464 18.61 42.9464 19.1918V19.9999C42.9469 20.1019 42.9697 20.2027 43.0132 20.2957C43.0566 20.3886 43.1199 20.4717 43.1988 20.5396C43.2778 20.6074 43.3706 20.6584 43.4713 20.6894C43.5719 20.7203 43.6782 20.7304 43.7832 20.7191C44.3607 20.7191 44.7791 20.3554 44.7791 19.1837C44.7707 18.2948 44.3523 17.9635 43.8753 17.9635Z" fill="white"/>
<path d="M46.6378 19.2567C46.6378 20.3153 47.2236 20.6305 47.7592 20.6305C48.0847 20.6271 48.3998 20.519 48.6546 20.3234L48.8303 20.6709C48.4673 20.9498 48.0138 21.0958 47.55 21.083C46.7884 21.083 46.0186 20.5254 46.0186 19.2971C46.0186 17.9072 46.9726 17.4951 47.5249 17.4951C48.4621 17.4951 48.8973 18.0769 48.8973 19.1113V19.2567H46.6378ZM48.3115 18.7072C48.3207 18.6057 48.3082 18.5033 48.2747 18.4066C48.2412 18.3099 48.1874 18.2209 48.1168 18.1451C48.0462 18.0694 47.9601 18.0084 47.8641 17.9661C47.768 17.9238 47.6639 17.901 47.5583 17.8992C47.3575 17.8992 46.8219 17.988 46.7215 18.8446H48.3366L48.3115 18.7072Z" fill="white"/>
<path d="M50.6621 21.0103H49.5742V17.5518H50.5701C51.2228 17.5518 52.0764 17.5518 52.0764 18.3598C52.0803 18.5489 52.0155 18.7333 51.8932 18.8809C51.7708 19.0286 51.5988 19.1301 51.4069 19.1679V19.2164C51.6119 19.2207 51.8068 19.3028 51.9494 19.445C52.092 19.5873 52.1707 19.7781 52.1684 19.976C52.1684 20.776 51.3818 21.0103 50.6621 21.0103ZM50.6621 17.9639C50.5075 17.9663 50.3534 17.9825 50.2019 18.0124V19.0467H50.7458C51.3567 19.0467 51.499 18.78 51.499 18.4164C51.499 18.0528 50.8044 17.972 50.6286 17.972L50.6621 17.9639ZM50.7123 19.3942H50.2102V20.5336C50.3847 20.5923 50.5702 20.6143 50.7542 20.5982C51.5073 20.5982 51.591 20.1619 51.591 19.9437C51.5575 19.5235 51.1893 19.3942 50.7123 19.3942Z" fill="white"/>
<path d="M54.2364 21.1315C53.3995 21.1315 52.7217 20.5254 52.7217 19.2971C52.7217 17.7375 53.7175 17.4951 54.2615 17.4951C54.8054 17.4951 55.8264 17.7456 55.8264 19.2971C55.8264 20.5254 55.0565 21.1315 54.2364 21.1315ZM54.2364 17.8992C53.9016 17.8992 53.3242 17.9961 53.3242 19.281C53.3242 20.2264 53.7343 20.687 54.2364 20.687C54.7385 20.687 55.2322 20.2426 55.2322 19.2971C55.2322 18.0123 54.5878 17.9153 54.2615 17.9153L54.2364 17.8992Z" fill="white"/>
<path d="M57.9346 21.1315C57.0978 21.1315 56.4199 20.5254 56.4199 19.2971C56.4199 17.7375 57.4158 17.4951 57.9597 17.4951C58.5037 17.4951 59.5246 17.7456 59.5246 19.2971C59.5246 20.5254 58.7547 21.1315 57.9346 21.1315ZM57.9346 17.8992C57.5999 17.8992 57.0225 17.9961 57.0225 19.281C57.0225 20.2264 57.4325 20.687 57.9346 20.687C58.4367 20.687 58.8719 20.2264 58.8719 19.281C58.897 18.0123 58.2861 17.9153 57.9597 17.9153L57.9346 17.8992Z" fill="white"/>
<path d="M61.6169 21.1233C60.7801 21.1233 60.1357 20.5495 60.1357 19.1273C60.1357 17.9071 60.186 16.6384 61.458 16.1051C61.8764 15.9273 62.6714 15.8303 62.9475 15.6606V16.2667C62.6379 16.4606 61.868 16.5172 61.4412 16.7112C61.1889 16.8362 60.9772 17.0261 60.8295 17.26C60.6818 17.4938 60.6039 17.7625 60.6044 18.0364H60.663C60.7836 17.8618 60.9484 17.7197 61.1416 17.6236C61.3349 17.5274 61.5503 17.4804 61.7676 17.4869C62.2948 17.4869 63.2153 17.6808 63.2153 19.2404C63.2455 19.4666 63.2276 19.6963 63.1625 19.9155C63.0974 20.1346 62.9867 20.3387 62.837 20.515C62.6873 20.6913 62.5018 20.8362 62.292 20.9408C62.0822 21.0454 61.8525 21.1075 61.6169 21.1233ZM61.709 17.8909C61.4747 17.8909 60.7634 17.9314 60.7634 19.2243C60.7634 20.2263 61.1567 20.6869 61.6504 20.6869C62.1442 20.6869 62.6212 20.2263 62.6212 19.2808C62.6212 18.0122 62.0354 17.9071 61.709 17.9071V17.8909Z" fill="white"/>
<path d="M65.3827 21.1312C65.2334 21.1401 65.0839 21.1156 64.946 21.0595C64.8081 21.0035 64.6855 20.9174 64.5877 20.808V22.6261H63.9936V18.408C63.9959 18.1378 63.9792 17.8678 63.9434 17.5999L64.5208 17.5433L64.5877 18.0847C64.7015 17.9058 64.8618 17.7587 65.0526 17.6581C65.2435 17.5574 65.4582 17.5067 65.6756 17.511C66.4288 17.511 67.0313 18.0362 67.0313 19.1837C67.0313 20.5494 66.1108 21.1312 65.3827 21.1312ZM65.5166 17.9635C64.7969 17.9635 64.5877 18.61 64.5877 19.1918V19.9999C64.5882 20.1019 64.611 20.2027 64.6545 20.2957C64.698 20.3886 64.7612 20.4717 64.8402 20.5396C64.9191 20.6074 65.0119 20.6584 65.1126 20.6894C65.2133 20.7203 65.3196 20.7304 65.4246 20.7191C65.9936 20.7191 66.4204 20.3554 66.4204 19.1837C66.4121 18.2948 66.002 17.9635 65.5166 17.9635Z" fill="white"/>
<path d="M69.9517 21.0102C69.8761 20.8405 69.8282 20.6606 69.8094 20.4769C69.6954 20.6743 69.5253 20.8362 69.3193 20.9436C69.1132 21.0509 68.8797 21.0993 68.6462 21.0829C68.5145 21.0838 68.3841 21.0576 68.2637 21.0061C68.1433 20.9546 68.0356 20.879 67.9477 20.7842C67.8599 20.6895 67.7939 20.5777 67.7542 20.4565C67.7145 20.3352 67.7019 20.2072 67.7173 20.0809C67.7173 19.0466 68.6044 18.9092 69.1483 18.893H69.8094V18.6587C69.8094 18.0445 69.4998 17.9476 69.1986 17.9476C69.0025 17.9615 68.8112 18.0129 68.6359 18.0989C68.4606 18.185 68.3048 18.3038 68.1776 18.4486L67.9014 18.0041C68.2962 17.694 68.7901 17.5255 69.299 17.5274C70.3952 17.5274 70.3952 18.2546 70.3952 18.691V19.1758C70.3228 19.7888 70.3596 20.4092 70.504 21.0102H69.9517ZM69.776 19.2162H69.2655C68.822 19.2162 68.2948 19.2971 68.2948 19.9354C68.2948 20.388 68.5207 20.6142 68.8471 20.6142C69.4663 20.6142 69.776 19.9597 69.776 19.5476V19.2162Z" fill="white"/>
<path d="M72.6385 21.1233C71.8016 21.1233 71.1572 20.5495 71.1572 19.1273C71.1572 17.9071 71.1572 16.6384 72.4711 16.1051C72.8895 15.9273 73.6845 15.8303 73.9607 15.6606L74.0025 16.2667C73.7012 16.4606 72.923 16.5172 72.5046 16.7112C72.2546 16.839 72.0449 17.0296 71.8976 17.2628C71.7504 17.496 71.6709 17.7633 71.6677 18.0364H71.7347C71.8522 17.8664 72.0116 17.7273 72.1986 17.6314C72.3855 17.5355 72.5941 17.4859 72.8058 17.4869C73.3247 17.4869 74.2536 17.6808 74.2536 19.2404C74.2826 19.4676 74.2632 19.6982 74.1966 19.9179C74.1301 20.1376 74.0177 20.3419 73.8665 20.5182C73.7153 20.6945 73.5283 20.8391 73.3172 20.9431C73.106 21.0472 72.875 21.1085 72.6385 21.1233ZM72.7221 17.8909C72.4878 17.8909 71.7849 17.9314 71.7849 19.2243C71.7849 20.2263 72.1782 20.6869 72.6217 20.6869C73.0652 20.6869 73.6427 20.2425 73.6427 19.297C73.6427 18.0122 73.0485 17.9071 72.7221 17.9071V17.8909Z" fill="white"/>
<path d="M77.1734 21.0102C77.0978 20.8406 77.0498 20.6607 77.0311 20.4769C76.9171 20.6743 76.747 20.8362 76.541 20.9436C76.3349 21.0509 76.1014 21.0993 75.8679 21.083C75.7362 21.0838 75.6058 21.0576 75.4854 21.0061C75.365 20.9547 75.2573 20.879 75.1694 20.7843C75.0816 20.6895 75.0156 20.5778 74.9759 20.4565C74.9361 20.3353 74.9236 20.2072 74.939 20.0809C74.939 19.0466 75.8261 18.9092 76.3784 18.893H77.0311V18.6587C77.0311 18.0446 76.7215 17.9476 76.4286 17.9476C76.2321 17.9597 76.0402 18.0103 75.8646 18.0965C75.6891 18.1826 75.5336 18.3024 75.4076 18.4486L75.1315 18.0042C75.5223 17.6928 76.014 17.524 76.5207 17.5274C77.6169 17.5274 77.6169 18.2547 77.6169 18.691V19.1759C77.5445 19.7888 77.5813 20.4092 77.7257 21.0102H77.1734ZM76.9893 19.2244H76.4788C76.0353 19.2244 75.5081 19.3052 75.5081 19.9436C75.5081 20.3961 75.734 20.6223 76.0604 20.6223C76.6797 20.6223 76.9893 19.9678 76.9893 19.5557V19.2244Z" fill="white"/>
<path d="M79.751 18.0043V21.0103H79.1568V18.0043H78.1777V17.5518H80.6883V18.0043H79.751Z" fill="white"/>
<path d="M82.3871 21.0103H81.3076V17.5518H81.9018V18.9255C81.9018 18.9255 82.27 18.877 82.4708 18.877C83.5671 18.877 83.86 19.3619 83.86 19.8952C83.86 20.7033 83.1152 21.0103 82.3871 21.0103ZM82.3871 19.2406C82.2198 19.2406 81.9018 19.2406 81.9018 19.2406V20.5497C81.9018 20.5497 82.1863 20.5497 82.4374 20.5497C83.1152 20.5497 83.2324 20.1861 83.2324 19.8305C83.2324 19.3942 82.8976 19.2487 82.3871 19.2487V19.2406ZM84.2784 21.0103V17.5518H84.8726V21.0103H84.2784Z" fill="white"/>
<path d="M86.8809 21.0103H85.793V17.5518H86.7888C87.4415 17.5518 88.2951 17.5518 88.2951 18.3598C88.2987 18.55 88.2327 18.7353 88.1087 18.8832C87.9847 19.031 87.8107 19.1318 87.6173 19.1679V19.2164C87.7195 19.2175 87.8205 19.2379 87.9145 19.2767C88.0085 19.3154 88.0937 19.3717 88.1652 19.4422C88.2366 19.5128 88.293 19.5962 88.3311 19.6878C88.3692 19.7794 88.3883 19.8773 88.3872 19.976C88.3872 20.776 87.6005 21.0103 86.8809 21.0103ZM86.8809 17.9639C86.7235 17.9668 86.5667 17.983 86.4122 18.0124V19.0467H86.9645C87.5754 19.0467 87.7177 18.78 87.7177 18.4164C87.7177 18.0528 87.0315 17.972 86.8474 17.972L86.8809 17.9639ZM86.9645 19.4023H86.4122V20.5417C86.5898 20.5994 86.7778 20.6214 86.9645 20.6063C87.7177 20.6063 87.8014 20.1699 87.8014 19.9518C87.7763 19.5235 87.3997 19.3942 86.9311 19.3942L86.9645 19.4023Z" fill="white"/>
<path d="M91.2164 21.0102C91.1408 20.8405 91.0928 20.6606 91.0741 20.4769C90.96 20.6743 90.79 20.8362 90.5839 20.9436C90.3779 21.0509 90.1444 21.0993 89.9109 21.0829C89.7792 21.0838 89.6488 21.0576 89.5284 21.0061C89.4079 20.9546 89.3002 20.879 89.2124 20.7842C89.1245 20.6895 89.0586 20.5777 89.0188 20.4565C88.9791 20.3352 88.9666 20.2072 88.982 20.0809C88.982 19.0466 89.869 18.9092 90.4214 18.893H91.0741V18.6587C91.0741 18.0445 90.7645 17.9476 90.4716 17.9476C90.275 17.9596 90.0831 18.0103 89.9076 18.0964C89.7321 18.1826 89.5766 18.3024 89.4506 18.4486L89.1661 18.0041C89.5608 17.694 90.0547 17.5255 90.5636 17.5274C91.6682 17.5274 91.6682 18.2546 91.6682 18.691V19.1758C91.6006 19.8035 91.6459 20.4378 91.8021 21.0506L91.2164 21.0102ZM91.0406 19.2162H90.5301C90.0866 19.2162 89.5594 19.2971 89.5594 19.9354C89.5594 20.388 89.7853 20.6142 90.1117 20.6142C90.731 20.6142 91.0406 19.9597 91.0406 19.5476V19.2162Z" fill="white"/>
<path d="M95.4004 21.1232C94.5635 21.1232 93.9192 20.5575 93.8773 19.41H93.1493V21.0262H92.5635V17.5515H93.1493V19.0303H93.8857C94.0531 17.7535 94.915 17.4868 95.4255 17.4868C95.936 17.4868 96.982 17.7454 96.982 19.2969C96.9904 20.5252 96.2372 21.1232 95.4004 21.1232ZM95.4004 17.8909C95.0656 17.8909 94.4715 17.9959 94.4715 19.2808C94.4715 20.2262 94.8983 20.6868 95.4004 20.6868C95.9025 20.6868 96.3293 20.2262 96.3293 19.2808C96.3628 18.0121 95.7519 17.907 95.4004 17.907V17.8909Z" fill="white"/>
<path d="M102.162 21.8184L102.095 21.0103H97.752V17.5518H98.3378V20.5659H99.6516V17.5518H100.246V20.5659H101.56V17.5518H102.145V20.5659H102.614V21.8184H102.162Z" fill="white"/>
<path d="M105.543 21.0102V18.3273L103.87 21.0182H103.275V17.5516H103.87V20.2021L105.543 17.5273H106.129V21.0102H105.543Z" fill="white"/>
<path d="M109.317 21.01V18.3272L107.643 21.0181H107.058V17.5515H107.643V20.202L109.317 17.5272H109.911V21.01H109.317ZM108.48 17.1717C108.349 17.184 108.217 17.1699 108.092 17.1301C107.967 17.0902 107.852 17.0257 107.754 16.9405C107.657 16.8553 107.578 16.7514 107.525 16.6353C107.471 16.5193 107.443 16.3937 107.443 16.2666H107.953C107.964 16.4016 108.028 16.5274 108.133 16.6178C108.237 16.7081 108.374 16.756 108.514 16.7515C108.584 16.7558 108.654 16.7467 108.72 16.7246C108.786 16.7025 108.847 16.6678 108.899 16.6227C108.952 16.5775 108.994 16.5228 109.024 16.4616C109.054 16.4005 109.071 16.3342 109.074 16.2666H109.543C109.541 16.3929 109.512 16.5175 109.459 16.6328C109.405 16.748 109.328 16.8516 109.232 16.937C109.136 17.0225 109.022 17.0881 108.899 17.1298C108.775 17.1716 108.644 17.1885 108.514 17.1797L108.48 17.1717Z" fill="white"/>
<path d="M114.589 21.0102L114.079 19.992C113.845 19.5394 113.661 19.4425 113.351 19.4425H113.108V21.0102H112.522V17.5516H113.108V19.0627H113.276C113.644 19.0627 113.736 18.9334 113.937 18.497L114.104 18.1253C114.177 17.9364 114.31 17.7749 114.485 17.6644C114.66 17.5539 114.866 17.5002 115.075 17.5112V18.0203C114.866 18.0203 114.623 18.0203 114.397 18.594C114.363 18.7187 114.301 18.8347 114.216 18.9338C114.131 19.033 114.024 19.1128 113.903 19.1677V19.2081C114.053 19.2614 114.19 19.3442 114.306 19.4514C114.421 19.5585 114.512 19.6875 114.573 19.8304L115.209 21.0182L114.589 21.0102Z" fill="white"/>
<path d="M117.066 21.1315C116.23 21.1315 115.552 20.5254 115.552 19.2971C115.552 17.7375 116.556 17.4951 117.1 17.4951C117.644 17.4951 118.656 17.7456 118.656 19.2971C118.656 20.5254 117.887 21.1315 117.066 21.1315ZM117.066 17.8992C116.732 17.8992 116.146 17.9961 116.146 19.281C116.146 20.2264 116.564 20.687 117.066 20.687C117.569 20.687 117.995 20.2264 117.995 19.281C117.995 18.0123 117.418 17.9153 117.1 17.9153L117.066 17.8992Z" fill="white"/>
<path d="M122.489 21.0101V18.4566L121.318 20.6384H121.15L119.937 18.4566V21.0101H119.418L119.493 17.5435H120.079L121.334 19.798L122.506 17.5435H123.016L123.092 21.0101H122.489Z" fill="white"/>
<path d="M125.317 21.1233C124.48 21.1233 123.836 20.5495 123.836 19.1273C123.836 17.9071 123.878 16.6384 125.15 16.1051C125.568 15.9273 126.363 15.8303 126.639 15.6606V16.2667C126.338 16.4606 125.56 16.5172 125.141 16.7112C124.891 16.839 124.682 17.0296 124.534 17.2628C124.387 17.496 124.308 17.7633 124.305 18.0364H124.372C124.492 17.8618 124.657 17.7197 124.85 17.6236C125.043 17.5274 125.259 17.4804 125.476 17.4869C125.995 17.4869 126.924 17.6808 126.924 19.2404C126.953 19.467 126.934 19.6969 126.868 19.9161C126.802 20.1353 126.69 20.3392 126.54 20.5154C126.389 20.6916 126.203 20.8363 125.993 20.9409C125.783 21.0454 125.553 21.1074 125.317 21.1233ZM125.401 17.8909C125.167 17.8909 124.464 17.9314 124.464 19.2243C124.464 20.2263 124.857 20.6869 125.342 20.6869C125.828 20.6869 126.313 20.2263 126.313 19.2808C126.313 18.0122 125.727 17.9071 125.401 17.9071V17.8909Z" fill="white"/>
<path d="M129.979 21.0102V18.3273L128.305 21.0182H127.711V17.5516H128.305V20.2021L129.979 17.5273H130.565V21.0102H129.979Z" fill="white"/>
<path d="M133.594 21.0103V19.3942H132.062V21.0103H131.477V17.5518H132.062V18.9982H133.594V17.5518H134.188V21.0103H133.594Z" fill="white"/>
<path d="M137.243 21.0102C137.167 20.8405 137.119 20.6606 137.1 20.4769C136.986 20.6743 136.816 20.8362 136.61 20.9436C136.404 21.0509 136.171 21.0993 135.937 21.0829C135.806 21.0838 135.675 21.0576 135.555 21.0061C135.434 20.9546 135.327 20.879 135.239 20.7842C135.151 20.6895 135.085 20.5777 135.045 20.4565C135.005 20.3352 134.993 20.2072 135.008 20.0809C135.008 19.0466 135.895 18.9092 136.439 18.893H137.1V18.6587C137.1 18.0445 136.791 17.9476 136.49 17.9476C136.293 17.9615 136.102 18.0129 135.927 18.0989C135.752 18.185 135.596 18.3038 135.469 18.4486L135.192 18.0041C135.587 17.694 136.081 17.5255 136.59 17.5274C137.686 17.5274 137.686 18.2546 137.686 18.691V19.1758C137.62 19.804 137.668 20.4385 137.829 21.0506L137.243 21.0102ZM137.067 19.2162H136.557C136.113 19.2162 135.586 19.2971 135.586 19.9354C135.586 20.388 135.812 20.6142 136.138 20.6142C136.757 20.6142 137.067 19.9597 137.067 19.5476V19.2162Z" fill="white"/>
<path d="M139.845 18.0043V21.0103H139.251V18.0043H138.271V17.5518H140.782V18.0043H139.845Z" fill="white"/>
</svg>
