<svg width="1400" height="270" viewBox="0 0 1400 270" fill="none" xmlns="http://www.w3.org/2000/svg">
<rect width="1400" height="270" fill="#E5E5E5"/>
<rect y="1749" width="1749" height="1400" transform="rotate(-90 0 1749)" fill="#686868"/>
<g opacity="0.05">
<path d="M1240.55 -141.578L1287.84 -158.533L1339.59 -182.62L1388.67 -183.516L1430.61 -207.61L1477.9 -223.668V-224.558L1429.72 -209.39L1387.78 -187.978L1336.92 -188.868L1285.16 -165.67L1236.98 -150.502L1236.09 -209.388L1235.2 -290.589L1239.66 -344.129L1233.41 -384.281L1232.52 -442.277H1231.63L1230.73 -384.281L1235.2 -344.129L1231.63 -292.376L1228.95 -209.39L1228.06 -150.503L1187.91 -162.995L1134.36 -179.053L1122.77 -187.083H1105.81L1028.19 -211.176L1027.29 -210.286L1104.03 -183.516L1120.09 -182.619L1130.8 -174.59L1185.23 -155.855L1224.49 -141.577L1203.96 -111.241L1191.47 -89.8241L1161.13 -49.6725L1140.61 -19.3361L1119.2 11.0066L1120.09 11.8966L1142.4 -17.549L1164.71 -47.8854L1195.93 -85.3617L1210.21 -106.778L1232.52 -136.224L1251.26 -119.269L1268.21 -80.897L1298.55 -47.8838L1311.93 -32.7156L1332.46 -5.9452V-6.84148L1314.61 -33.6055L1303.01 -50.5607L1273.57 -84.4694L1258.39 -121.946L1240.55 -141.578Z" fill="white"/>
<path d="M1240.55 16.3555C1220.03 16.3555 1201.29 8.32636 1184.33 -6.84246C1162.92 -25.5838 1140.61 -41.6419 1113.85 -56.8093C1088.86 -71.0874 1074.58 -92.4978 1070.12 -122.84C1066.55 -153.177 1073.69 -179.057 1090.64 -198.689C1098.67 -208.504 1107.6 -218.319 1115.63 -227.245C1125.44 -238.847 1135.26 -250.443 1145.07 -262.045C1163.81 -283.461 1187.01 -296.844 1214.67 -302.196C1242.33 -307.548 1269.1 -303.982 1294.97 -291.491C1319.07 -278.999 1341.38 -262.045 1361.01 -239.738C1379.75 -217.43 1389.56 -191.557 1390.45 -164.787C1391.34 -135.341 1389.56 -107.68 1384.2 -81.8065C1378.85 -54.1471 1363.68 -32.7288 1338.7 -17.5615C1312.82 -2.39327 1286.05 8.31188 1259.28 13.672C1253.94 15.4584 1246.8 16.3546 1240.55 16.3546L1240.55 16.3555ZM1239.66 -303.978C1231.63 -303.978 1223.6 -303.087 1215.57 -301.301C1187.91 -295.948 1164.7 -282.56 1145.97 -261.15C1136.15 -249.548 1126.34 -237.952 1116.52 -226.35C1108.49 -216.535 1099.57 -206.72 1091.54 -197.794C1074.58 -178.163 1067.44 -152.288 1071.02 -121.946C1075.48 -91.6092 1089.76 -70.1925 1114.74 -55.9143C1141.51 -40.7461 1163.82 -24.6808 1185.23 -5.94745C1206.64 13.683 1231.63 20.8229 1260.18 14.5737C1287.84 9.22089 1313.72 -1.48438 1339.59 -16.6597C1364.58 -31.8279 1379.74 -53.2453 1385.1 -80.9048C1390.45 -106.778 1392.24 -134.446 1391.35 -163.885C1390.46 -190.655 1380.64 -216.529 1361.9 -238.836C1342.27 -261.143 1320.85 -278.098 1295.87 -290.589C1278.03 -299.521 1259.29 -303.977 1239.66 -303.977L1239.66 -303.978Z" fill="white"/>
<path d="M1250.38 40.451C1240.56 40.451 1230.74 39.5609 1220.93 36.8845C1194.16 29.7454 1170.96 18.1432 1148.66 -0.591778C1128.13 -18.436 1106.72 -35.3912 1084.41 -51.4557C1062.1 -67.5138 1049.61 -89.8211 1046.93 -119.268C1044.26 -148.714 1048.72 -176.375 1061.21 -199.571C1072.81 -222.77 1090.66 -242.4 1113.86 -260.244C1137.05 -278.088 1158.47 -295.044 1178.99 -311.997C1200.41 -329.841 1225.39 -335.195 1253.05 -328.952C1280.71 -322.703 1306.59 -311.997 1330.68 -297.719C1353.88 -283.441 1373.51 -264.706 1389.57 -241.503C1405.63 -219.196 1413.67 -193.322 1414.56 -164.766C1415.45 -138.892 1413.67 -110.336 1410.09 -80.8886C1406.53 -52.332 1394.04 -30.0247 1371.73 -13.0759C1349.42 3.87921 1325.33 18.1575 1299.45 29.7525C1283.4 36.8792 1267.33 40.4518 1250.38 40.4518L1250.38 40.451ZM1231.64 -331.635C1212.01 -331.635 1194.16 -325.386 1179 -312.005C1158.48 -295.05 1137.06 -278.096 1113.86 -260.252C1090.66 -242.407 1072.81 -222.775 1061.22 -199.579C1048.73 -176.381 1044.26 -149.612 1046.94 -119.276C1049.62 -89.8302 1062.11 -67.5229 1084.42 -51.4632C1106.72 -35.4035 1128.14 -18.4499 1148.66 -0.599267C1170.97 18.1421 1194.17 29.7371 1220.93 36.877C1247.71 44.0162 1273.58 41.3398 1299.46 29.7379C1325.33 18.1362 1349.42 3.86457 1371.73 -13.0906C1394.04 -30.0457 1406.53 -52.353 1410.1 -80.9032C1413.66 -110.349 1415.45 -138.899 1414.56 -164.78C1413.67 -193.337 1405.63 -218.321 1389.58 -241.518C1373.52 -264.716 1353.89 -283.455 1330.68 -297.734C1306.59 -312.012 1280.72 -322.718 1253.06 -328.967C1245.91 -330.741 1238.78 -331.637 1231.64 -331.637L1231.64 -331.635Z" fill="white"/>
<path d="M1237.87 68.1122C1218.24 68.1122 1200.39 62.7595 1183.44 51.1571C1160.24 35.9889 1137.04 20.8207 1113.84 7.43316C1090.64 -5.94868 1071.01 -22.9032 1053.17 -44.3198C1036.21 -64.841 1026.4 -89.8252 1023.72 -117.491C1021.93 -146.937 1024.61 -173.707 1032.65 -198.691C1040.68 -225.462 1055.84 -245.983 1079.05 -262.047C1100.46 -277.215 1120.98 -295.06 1141.51 -317.368C1160.25 -338.784 1183.44 -350.381 1211.1 -352.167C1237.88 -354.844 1264.65 -351.277 1291.41 -342.352C1318.18 -333.426 1342.27 -320.044 1362.79 -303.986C1383.31 -287.928 1401.16 -268.298 1416.33 -242.416C1429.72 -218.323 1436.85 -192.45 1437.75 -165.679C1437.75 -140.695 1435.96 -112.138 1433.29 -81.8021C1430.61 -54.1427 1419.91 -30.0492 1402.05 -9.52806C1383.31 11.8886 1361.9 28.8373 1337.81 39.5496C1311.04 52.0414 1285.17 60.0708 1259.29 65.4229C1253.04 67.2155 1245.01 68.1118 1237.87 68.1118L1237.87 68.1122ZM1229.84 -352.158C1223.59 -352.158 1218.24 -352.158 1211.99 -351.268C1184.33 -349.481 1161.13 -337.886 1142.4 -316.468C1121.87 -294.161 1101.35 -276.317 1079.94 -261.148C1056.74 -245.09 1041.57 -224.562 1033.54 -197.792C1025.51 -172.807 1022.83 -146.039 1024.61 -116.591C1027.29 -88.9319 1037.1 -63.9477 1054.06 -43.4202C1071.9 -22.0036 1091.53 -5.05479 1114.73 8.33279C1137.93 21.7146 1161.13 36.8893 1184.33 52.0567C1207.53 67.2249 1231.62 71.6871 1260.18 66.3348C1286.05 60.982 1311.93 52.953 1338.7 40.4615C1362.79 29.7559 1384.2 12.802 1402.94 -8.61617C1420.79 -29.1373 1431.5 -53.2308 1434.18 -80.8903C1436.85 -111.227 1438.64 -139.783 1438.64 -164.767C1437.75 -191.538 1430.61 -217.411 1417.22 -241.505C1402.06 -267.378 1384.21 -287.01 1363.68 -303.074C1343.16 -319.132 1319.07 -332.52 1292.3 -341.44C1271.78 -348.585 1250.36 -352.158 1229.84 -352.158L1229.84 -352.158Z" fill="white"/>
<path d="M1239.67 91.3082C1216.47 91.3082 1195.94 84.1691 1177.21 70.7871C1153.11 52.9428 1127.24 36.8783 1099.58 22.6064C1071.92 7.43825 1048.72 -11.3023 1031.77 -34.5003C1013.92 -58.5938 1004.11 -85.3642 1001.43 -117.48C998.754 -147.817 1001.43 -179.05 1009.46 -209.386C1017.49 -240.62 1035.33 -263.816 1062.1 -278.095C1089.76 -294.153 1113.86 -313.783 1132.59 -336.988C1152.22 -361.081 1178.1 -374.464 1209.33 -376.25C1241.45 -378.036 1271.79 -374.464 1300.34 -364.648C1330.68 -354.833 1357.45 -339.664 1379.76 -320.924C1403.85 -301.294 1423.48 -278.096 1438.65 -251.326C1453.82 -223.666 1461.85 -195.11 1461.85 -165.662C1461.85 -136.217 1460.06 -105.879 1458.28 -74.6468V-71.9704C1455.61 -39.8478 1443.11 -13.0774 1421.7 7.4437C1399.39 28.8603 1374.41 46.7062 1347.64 60.0874C1320.87 74.3655 1291.42 84.1808 1260.19 89.533C1253.05 90.4168 1245.91 91.3069 1239.67 91.3069L1239.67 91.3082ZM1224.5 -377.146H1209.33C1178.1 -375.359 1152.22 -361.977 1132.59 -337.883C1113.85 -314.685 1089.76 -295.055 1062.1 -278.99C1035.33 -263.822 1017.49 -241.514 1009.46 -210.282C1001.43 -179.946 998.755 -148.712 1001.43 -118.376C1004.11 -86.2533 1013.92 -59.4829 1031.77 -35.3957C1048.72 -12.1977 1071.92 6.54201 1099.58 21.711C1127.24 35.9891 1153.12 52.0473 1177.21 69.8916C1201.3 87.7358 1228.96 93.9851 1260.19 88.6329C1291.42 83.2801 1320.86 73.4647 1347.63 59.1873C1374.4 45.8054 1399.38 27.9538 1421.69 6.54358C1443.11 -13.9776 1455.6 -40.7479 1458.28 -72.8705V-75.5469C1460.06 -106.78 1461.84 -137.117 1461.84 -166.562C1461.84 -196.008 1453.82 -224.558 1438.65 -252.226C1423.48 -278.996 1403.85 -302.192 1379.75 -321.824C1357.45 -340.559 1330.68 -354.838 1300.34 -365.544C1276.25 -372.683 1250.37 -377.145 1224.5 -377.145L1224.5 -377.146Z" fill="white"/>
<path d="M1214.67 185.002C1181.65 185.002 1154.88 175.186 1130.79 154.665C1108.48 135.035 1083.5 118.977 1053.16 104.699C1025.5 92.2069 1000.52 75.253 977.314 52.055C955.898 31.5338 939.838 5.65418 928.237 -25.5729C917.531 -55.0249 911.281 -85.3613 908.606 -117.485C905.93 -147.822 907.716 -179.055 913.069 -211.178C918.422 -243.3 929.127 -270.961 946.082 -297.73C962.14 -323.603 983.558 -345.911 1011.22 -361.975C1037.09 -378.033 1060.3 -397.664 1080.82 -422.648C1100.45 -447.632 1126.32 -461.91 1158.44 -466.372C1189.68 -470.835 1220.01 -471.725 1253.03 -469.938C1285.15 -468.152 1315.48 -461.909 1344.04 -450.308C1373.49 -439.602 1401.15 -424.435 1426.13 -405.693C1450.23 -387.849 1472.53 -366.431 1493.05 -340.557C1514.47 -313.787 1529.64 -287.017 1539.46 -259.357C1550.16 -230.801 1555.51 -200.464 1556.41 -168.342C1557.3 -138.005 1555.52 -107.669 1551.95 -74.6495C1547.48 -45.2039 1539.46 -13.9768 1528.75 16.366C1518.04 45.8116 1499.3 70.7959 1474.32 89.5372C1450.23 108.279 1423.46 126.123 1394.91 140.401C1364.57 156.459 1336.01 167.171 1308.35 173.414C1275.34 181.431 1245 185.004 1214.67 185.004V185.002ZM1223.59 -469.941C1201.28 -469.941 1179.86 -468.155 1158.45 -465.478C1125.44 -461.016 1100.45 -446.737 1080.82 -421.754C1061.19 -396.77 1037.1 -377.14 1011.22 -361.082C983.565 -345.024 962.146 -322.716 946.088 -296.837C929.133 -270.066 918.429 -242.407 913.075 -210.284C907.722 -178.162 905.936 -146.928 908.612 -116.592C911.289 -84.4693 917.538 -54.1329 928.243 -24.6857C939.844 6.54774 955.902 32.421 977.32 52.9422C1000.52 76.1402 1025.5 93.0938 1053.17 105.586C1083.5 119.864 1108.49 135.922 1130.8 155.553C1154.89 176.074 1181.66 185.889 1214.67 185.889C1244.12 185.889 1275.35 182.323 1308.37 174.287C1336.03 168.038 1364.58 157.332 1394.92 141.274C1423.47 126.996 1450.24 109.152 1474.33 90.4102C1499.32 71.6688 1518.06 46.6863 1528.76 17.239C1539.47 -13.0974 1547.5 -44.3308 1551.96 -73.7765C1555.53 -106.79 1557.31 -137.132 1556.42 -167.469C1555.53 -199.591 1550.17 -229.928 1539.47 -258.484C1528.76 -287.028 1513.58 -313.792 1493.06 -340.562C1472.54 -366.436 1450.23 -387.854 1426.14 -405.698C1401.15 -424.44 1373.49 -439.607 1344.05 -450.313C1315.49 -461.915 1285.15 -468.157 1253.03 -469.943H1223.59V-469.941Z" fill="white"/>
<path d="M1235.19 161.804C1212.88 161.804 1191.47 158.237 1169.16 150.202C1140.6 140.386 1113.84 125.218 1088.86 103.801C1062.98 81.4938 1037.99 63.6495 1012.12 47.5851C985.348 30.6299 965.717 6.53644 954.122 -23.7999C942.52 -55.0333 935.381 -86.2588 932.706 -117.492C930.029 -148.726 931.816 -180.848 937.168 -213.86C942.521 -245.093 956.799 -272.753 979.106 -295.06C1001.41 -317.367 1023.72 -339.675 1045.14 -361.982C1067.44 -385.18 1091.54 -404.811 1118.31 -419.978C1146.87 -436.036 1177.2 -444.962 1207.54 -446.748C1237.87 -449.425 1269.11 -446.748 1302.12 -437.823C1332.46 -429.794 1361.01 -417.302 1389.56 -400.347C1418.12 -382.502 1442.21 -362.87 1462.73 -339.674C1484.15 -315.58 1501.1 -288.81 1513.6 -259.371C1526.09 -229.034 1532.34 -198.698 1533.23 -166.575C1533.23 -138.019 1531.44 -106.792 1528.77 -69.3171C1524.3 -37.1945 1514.49 -6.85812 1501.11 20.803C1486.83 49.3595 1466.31 71.6668 1438.65 89.5111C1411.88 105.569 1383.33 120.745 1353.88 135.016C1325.32 148.398 1294.99 156.433 1261.97 160.001C1253.04 160.916 1244.12 161.806 1235.19 161.806L1235.19 161.804ZM1228.95 -448.525C1221.81 -448.525 1214.67 -448.525 1207.53 -447.635C1176.3 -445.848 1146.86 -436.929 1118.3 -420.864C1091.53 -405.696 1067.44 -386.065 1045.13 -362.868C1023.71 -340.561 1001.41 -318.254 979.098 -295.946C955.9 -272.748 942.513 -246.869 937.161 -214.746C931.808 -181.733 930.022 -149.61 932.698 -118.379C935.374 -87.1451 942.513 -55.9196 954.115 -24.6862C965.716 5.65019 985.348 29.7437 1012.11 46.6988C1037.98 62.7569 1062.97 80.6076 1088.85 102.915C1113.83 124.332 1140.6 139.5 1169.15 149.316C1200.38 160.021 1230.72 163.594 1261.95 159.131C1294.96 155.565 1324.4 147.53 1353.85 134.147C1383.3 119.869 1411.85 104.701 1438.62 88.6417C1466.28 70.7974 1486.8 48.4901 1501.08 19.9336C1514.46 -7.72591 1524.28 -38.0623 1528.74 -70.1864C1531.41 -107.663 1533.2 -138.895 1533.2 -167.445C1532.31 -199.567 1526.06 -229.904 1513.57 -260.24C1501.08 -289.686 1484.12 -316.456 1462.71 -340.543C1442.18 -363.741 1418.09 -383.372 1389.53 -401.216C1360.98 -418.171 1332.43 -430.662 1302.09 -438.692C1276.24 -444.954 1252.14 -448.526 1228.95 -448.526L1228.95 -448.525Z" fill="white"/>
<path d="M1236.1 136.816C1214.68 136.816 1194.16 133.25 1174.53 126.111C1147.76 116.295 1122.78 101.126 1101.36 81.4959C1080.84 62.7546 1056.74 44.9103 1029.97 30.632C1004.1 16.3539 985.359 -5.05649 974.653 -32.7239C963.947 -58.5972 956.808 -87.1538 954.131 -118.387C952.345 -150.51 953.241 -179.957 958.594 -206.726C963.057 -235.282 975.549 -261.156 996.96 -281.677C1006.78 -290.602 1016.59 -300.418 1026.41 -310.233C1037.11 -320.939 1048.71 -331.65 1059.42 -341.467C1080.84 -361.097 1103.14 -378.943 1127.23 -395.897C1151.32 -412.852 1178.1 -421.77 1208.43 -423.556C1238.77 -425.342 1268.21 -422.666 1295.87 -414.631C1323.53 -407.492 1350.3 -395.889 1376.18 -380.722C1403.84 -363.767 1426.14 -345.923 1443.99 -325.401C1463.62 -303.094 1479.68 -278.11 1491.28 -251.341C1501.99 -226.357 1508.24 -197.8 1509.13 -166.575C1510.02 -136.239 1508.24 -107.682 1502.88 -79.1318C1499.31 -49.6861 1491.28 -22.025 1478.78 4.74534C1466.29 30.6186 1447.55 52.0369 1421.68 68.1013C1396.69 84.1594 1370.81 98.4377 1344.05 110.93C1318.18 123.422 1290.51 131.451 1260.17 135.023C1252.16 136.816 1244.13 136.816 1236.1 136.816L1236.1 136.816ZM1225.39 -423.544C1220.04 -423.544 1213.79 -423.544 1208.44 -422.654C1178.1 -420.867 1151.33 -411.948 1127.24 -394.994C1103.14 -378.039 1080.84 -360.195 1059.43 -340.564C1048.72 -329.859 1037.12 -319.148 1026.41 -309.331C1016.6 -299.515 1006.78 -290.59 996.967 -280.774C975.55 -259.358 963.058 -234.374 958.601 -205.823C953.248 -178.164 952.352 -149.607 954.138 -117.485C956.815 -86.2513 963.954 -57.7011 974.66 -31.8214C985.365 -4.16196 1004.11 17.2562 1029.98 31.5345C1056.75 45.8126 1080.84 63.6571 1101.37 82.3984C1122.78 102.029 1147.77 117.198 1174.54 127.013C1201.31 136.829 1229.86 139.505 1260.2 135.938C1290.54 132.372 1318.2 124.337 1344.08 111.845C1370.85 99.3532 1396.72 85.0746 1421.7 69.0165C1447.58 52.9585 1466.32 31.5403 1478.81 5.66058C1491.3 -21.1098 1499.33 -48.7693 1502.9 -78.2165C1508.26 -106.773 1510.04 -135.323 1509.15 -165.66C1508.26 -196.893 1502.01 -225.443 1491.31 -250.426C1479.71 -277.196 1463.65 -302.179 1444.02 -324.486C1426.17 -345.007 1403.87 -362.852 1376.21 -379.807C1350.33 -394.975 1323.56 -406.577 1295.9 -413.715C1273.58 -420.867 1250.38 -423.543 1225.4 -423.543L1225.39 -423.544Z" fill="white"/>
<path d="M1231.62 111.83H1216.45C1184.33 109.154 1158.46 96.6619 1138.83 75.2445C1115.63 52.0465 1091.53 35.0929 1064.77 24.3806C1036.21 12.7789 1014.8 -6.85285 1001.41 -33.6153C988.028 -60.3856 979.993 -88.9358 977.316 -118.381C974.64 -147.827 976.426 -178.165 982.669 -208.501C988.022 -238.838 1004.09 -262.931 1029.07 -278.989C1053.16 -295.047 1075.47 -314.678 1095.1 -338.773C1113.84 -361.971 1137.04 -378.925 1165.59 -389.637C1195.03 -399.452 1224.48 -403.019 1253.03 -398.562C1281.59 -394.996 1310.14 -386.961 1338.7 -373.578C1367.25 -361.086 1391.34 -344.133 1411.87 -323.611C1433.28 -303.09 1450.23 -278.997 1464.51 -251.337C1478.79 -222.781 1485.03 -194.231 1485.03 -165.674C1485.92 -139.801 1485.03 -111.244 1481.47 -77.3354C1478.79 -46.999 1468.97 -19.3395 1452.02 4.75555C1435.06 30.6289 1413.65 49.3702 1386.88 63.6485C1359.22 78.8167 1331.56 90.4189 1304.79 100.234C1282.48 107.373 1257.49 111.83 1231.62 111.83L1231.62 111.83ZM1228.05 -401.238C1207.53 -401.238 1187 -397.672 1166.48 -390.533C1137.92 -379.827 1115.62 -363.762 1095.99 -339.669C1076.36 -315.575 1054.05 -295.945 1029.96 -279.885C1004.98 -263.827 988.912 -239.734 983.56 -209.397C977.311 -179.061 975.53 -148.725 978.207 -119.277C980.883 -89.8316 988.912 -61.2814 1002.3 -34.511C1015.68 -7.74067 1037.1 11.8898 1065.66 23.4848C1092.43 34.1904 1116.52 51.1443 1139.72 74.3487C1159.35 95.7653 1185.22 108.257 1217.34 110.934C1249.47 112.721 1278.91 109.148 1305.68 99.3325C1332.45 89.5172 1360.11 77.9159 1387.77 62.7469C1414.54 48.4688 1435.95 29.7337 1452.91 3.85402C1469.86 -20.2395 1479.68 -47.8989 1482.36 -78.2369C1485.92 -112.146 1486.82 -140.696 1485.92 -166.575C1485.92 -196.021 1478.78 -223.682 1465.4 -252.239C1451.12 -279.898 1434.17 -303.992 1412.76 -324.513C1392.24 -345.034 1368.14 -361.989 1339.59 -374.48C1311.03 -387.862 1282.48 -395.896 1253.92 -399.464C1245 -400.341 1236.08 -401.238 1228.05 -401.238L1228.05 -401.238Z" fill="white"/>
<path d="M1233.4 207.311C1213.76 207.311 1193.24 205.525 1170.04 202.848C1138.81 198.385 1112.93 184.107 1092.41 160.02C1071.89 135.926 1046.01 118.082 1016.56 108.267C986.227 97.5611 962.133 79.7102 944.289 54.726C924.665 26.1758 911.276 -0.594588 902.358 -28.2541C893.432 -55.0244 887.189 -85.3608 884.513 -118.374C881.837 -147.82 883.623 -178.158 888.976 -209.39C894.329 -238.835 903.254 -267.385 915.746 -297.728C928.238 -327.174 948.76 -348.592 977.316 -361.973C1006.76 -375.355 1029.07 -395.882 1045.13 -423.543C1062.08 -452.1 1085.28 -469.048 1115.62 -477.084C1145.06 -486.009 1174.51 -491.362 1206.63 -494.039C1237.87 -496.715 1268.2 -494.929 1297.65 -487.79C1329.77 -479.761 1358.32 -469.946 1384.2 -457.453C1411.86 -444.962 1437.74 -428.008 1460.94 -407.487C1486.81 -383.393 1506.44 -361.981 1522.51 -339.674C1541.25 -313.801 1554.63 -287.03 1564.44 -258.474C1574.26 -229.028 1579.61 -198.69 1580.5 -168.354C1580.5 -139.797 1578.72 -110.358 1576.04 -77.3383C1571.58 -44.3251 1564.44 -14.8794 1556.41 12.7817C1547.48 43.118 1532.32 68.9977 1509.12 89.5189C1484.13 112.717 1460.04 130.568 1435.06 144.839C1408.29 160.008 1380.63 173.396 1352.08 184.991C1325.31 195.697 1295.86 202.835 1262.85 205.512C1253.03 206.415 1243.21 207.311 1233.4 207.311H1233.4ZM1233.4 -494.924C1224.47 -494.924 1215.55 -494.924 1207.52 -494.033C1175.4 -491.357 1145.95 -486.004 1116.51 -477.078C1086.17 -469.049 1062.97 -451.205 1046.02 -423.538C1029.96 -395.878 1007.65 -375.357 978.206 -361.968C949.649 -348.586 929.128 -327.168 916.636 -297.723C903.254 -267.386 895.219 -238.83 889.866 -209.384C884.513 -178.151 882.726 -147.814 885.403 -118.369C888.079 -85.3554 894.328 -55.9097 903.247 -28.2487C912.172 -0.589191 926.445 26.1812 945.185 53.8422C963.029 78.8264 987.123 96.6707 1017.46 107.383C1046.9 117.199 1072.78 135.042 1093.31 159.136C1113.83 183.229 1139.71 197.501 1170.93 201.964C1205.73 206.427 1235.18 208.214 1263.73 205.531C1296.74 202.855 1326.19 195.715 1352.96 185.01C1381.52 173.408 1409.18 160.026 1435.94 144.858C1460.92 130.58 1485.02 112.736 1510 89.5376C1533.2 68.121 1548.37 43.1368 1557.29 12.8005C1565.32 -14.859 1572.46 -44.3063 1576.92 -77.3195C1579.6 -110.333 1581.38 -139.778 1581.38 -168.335C1580.49 -199.568 1575.14 -229.008 1565.33 -258.455C1555.51 -287.012 1542.13 -312.885 1523.39 -339.655C1507.33 -361.963 1487.7 -383.379 1461.82 -407.468C1438.62 -427.989 1412.74 -444.944 1385.08 -457.435C1359.21 -469.926 1330.65 -479.742 1298.53 -487.771C1276.23 -492.246 1254.81 -494.923 1233.39 -494.923L1233.4 -494.924Z" fill="white"/>
<path d="M886.314 59.1888C889.881 56.5124 892.563 54.7261 896.13 52.0497C895.24 51.1596 895.24 50.2633 894.344 49.3733C890.777 51.1596 887.204 52.0497 883.638 53.836C866.683 25.2794 854.192 -5.05693 845.273 -37.1795C852.412 -39.8559 859.551 -43.4285 867.58 -46.1049C859.551 -45.2149 851.522 -44.3186 844.382 -43.4285C835.456 -75.551 831 -107.674 831 -141.584C839.029 -142.474 847.058 -143.37 854.198 -144.26C846.169 -145.15 838.14 -146.047 831 -146.937C831 -179.95 835.463 -212.968 843.492 -245.092C851.515 -244.19 859.55 -243.3 866.683 -242.409C859.544 -245.086 852.405 -248.659 844.376 -251.335C853.302 -283.458 865.793 -313.794 881.852 -342.35C885.419 -340.564 888.992 -339.674 892.558 -337.888C893.448 -338.778 893.448 -339.674 894.344 -340.564C890.778 -343.24 888.095 -345.027 884.529 -347.703C901.484 -377.149 922.894 -399.456 946.988 -416.411C948.774 -417.301 950.554 -419.088 952.341 -419.978C955.907 -417.301 959.48 -414.625 963.942 -411.052C961.266 -414.619 958.589 -418.191 955.913 -421.758C978.22 -437.816 1003.2 -457.446 1030.86 -479.754C1031.75 -480.644 1032.65 -481.54 1034.43 -482.43C1037.11 -478.864 1039.78 -475.291 1043.36 -470.828C1041.57 -475.291 1039.79 -479.754 1038 -484.21C1065.66 -506.518 1095.11 -521.687 1125.45 -530.611C1128.12 -523.472 1131.7 -516.333 1134.37 -508.304C1133.48 -516.333 1132.59 -524.362 1131.7 -531.502C1163.82 -539.531 1195.94 -543.994 1229.85 -543.994C1230.74 -535.971 1231.64 -527.942 1232.53 -520.802C1233.42 -528.831 1234.31 -536.86 1235.2 -544C1268.22 -544 1301.23 -539.537 1333.36 -531.508C1332.47 -523.479 1331.57 -515.45 1330.68 -508.31C1333.36 -515.449 1336.93 -522.588 1339.61 -530.618C1371.73 -521.692 1402.07 -509.201 1430.62 -493.141C1427.95 -486.002 1424.37 -478.863 1421.7 -470.834C1426.16 -477.083 1431.51 -483.326 1435.98 -489.575C1464.53 -472.62 1490.41 -452.99 1514.5 -429.792C1509.15 -424.439 1504.68 -418.19 1500.22 -411.947C1506.47 -416.41 1512.71 -421.763 1518.96 -426.225C1542.16 -403.027 1561.79 -376.259 1578.75 -347.702C1572.5 -343.239 1566.25 -337.887 1560.01 -333.424C1567.14 -336.1 1574.28 -339.673 1582.31 -342.349C1598.37 -313.787 1610.86 -283.45 1619.78 -251.328C1612.64 -248.651 1605.5 -245.079 1597.47 -242.402C1605.5 -243.292 1613.53 -244.189 1620.67 -245.079C1628.7 -212.956 1633.16 -180.833 1633.16 -146.923C1625.14 -146.033 1617.11 -145.137 1609.97 -144.247C1618 -143.357 1626.02 -142.46 1633.16 -141.57C1633.16 -117.477 1627.81 -84.4636 1619.78 -44.312C1612.64 -45.2021 1604.61 -46.0984 1597.48 -46.9885C1604.61 -44.3121 1611.75 -40.7394 1618.89 -38.063C1615.33 -21.1078 1610.86 -3.26353 1605.51 16.3669C1601.94 30.645 1597.48 44.0264 1592.13 57.4156C1584.99 54.7392 1577.85 51.1665 1570.71 48.4901C1569.82 49.3801 1569.82 50.2764 1568.93 51.1665C1575.17 55.6292 1581.42 60.982 1587.67 65.4446C1573.39 96.678 1553.76 122.551 1528.77 144.859C1522.52 139.506 1515.39 135.043 1509.14 129.69C1508.25 130.581 1507.36 131.477 1507.36 131.477C1512.71 137.726 1517.17 143.969 1522.53 151.107C1510.92 160.923 1497.54 169.849 1483.26 176.981C1467.2 185.906 1451.14 193.936 1436.86 201.074C1431.51 194.825 1427.05 188.582 1421.69 181.444C1424.37 188.583 1427.94 195.722 1430.62 203.751C1393.14 222.492 1362.81 234.984 1339.6 241.227C1336.93 234.088 1333.35 226.949 1330.68 218.92C1331.57 226.949 1332.46 234.978 1333.35 242.118C1301.23 250.147 1269.11 254.61 1235.2 254.61C1234.31 246.58 1233.41 238.552 1232.52 231.412C1231.63 239.441 1230.74 247.47 1229.85 254.61C1196.83 254.61 1163.82 250.147 1131.69 242.118C1132.58 234.089 1133.48 226.06 1134.37 218.92C1131.69 226.059 1128.12 233.198 1125.44 241.227C1092.43 232.302 1065.66 218.92 1043.35 201.965C1041.56 200.178 1038.89 198.398 1037.1 196.612C1038.89 191.259 1041.56 185.906 1043.35 181.444C1039.78 185.906 1037.1 190.369 1033.54 193.936C1013.01 177.877 988.03 159.136 960.364 137.72C958.578 136.829 956.798 135.043 955.012 134.153C958.578 129.69 961.261 125.228 964.827 121.661C960.364 125.228 955.902 128.8 951.445 131.477C923.792 110.943 902.38 85.9603 886.316 59.1899L886.314 59.1888ZM1603.72 -168.346C1602.83 -201.359 1597.47 -233.482 1586.76 -264.713C1576.06 -295.947 1561.78 -325.386 1542.15 -352.157C1522.52 -378.927 1501.1 -403.02 1476.12 -425.328C1451.13 -447.635 1424.36 -465.479 1394.03 -478.869C1363.69 -492.25 1333.35 -503.853 1301.23 -510.991C1269.11 -518.13 1236.99 -520.807 1203.97 -517.24C1170.96 -514.564 1138.84 -508.315 1105.82 -498.499C1072.8 -489.573 1047.82 -470.839 1030.87 -442.283C1013.91 -413.726 991.603 -394.102 962.158 -379.824C932.712 -365.546 910.405 -342.348 896.126 -312.011C881.848 -281.675 871.142 -249.552 865.79 -217.43C859.541 -185.307 857.761 -152.294 859.541 -119.274C861.327 -86.2611 867.57 -54.1386 878.282 -22.9067C888.988 8.3267 903.266 37.766 921.111 65.4319C939.852 93.0913 964.835 112.723 996.959 124.325C1029.08 135.926 1055.85 153.77 1079.05 178.755C1101.36 203.739 1129.91 218.906 1162.93 224.26C1195.94 229.614 1228.96 231.399 1261.97 228.723C1294.98 226.046 1326.22 219.797 1357.45 207.306C1387.79 195.704 1417.23 181.433 1445.79 164.478C1474.35 147.522 1500.22 127.892 1525.2 105.585C1549.3 83.2774 1567.14 55.6179 1576.96 24.3845C1586.77 -6.84896 1593.91 -38.9715 1599.26 -71.9832C1602.82 -103.204 1604.61 -136.222 1603.72 -168.346L1603.72 -168.346Z" fill="white"/>
</g>
</svg>
