<svg width="83" height="148" viewBox="0 0 83 148" fill="none" xmlns="http://www.w3.org/2000/svg">
<mask id="path-1-inside-1_3_14782" fill="white">
<path fill-rule="evenodd" clip-rule="evenodd" d="M67 5L61 0L55 5H4C1.79086 5 0 6.79086 0 9V144C0 146.209 1.79086 148 4 148H79C81.2091 148 83 146.209 83 144V9C83 6.79086 81.2091 5 79 5H67Z"/>
</mask>
<path fill-rule="evenodd" clip-rule="evenodd" d="M67 5L61 0L55 5H4C1.79086 5 0 6.79086 0 9V144C0 146.209 1.79086 148 4 148H79C81.2091 148 83 146.209 83 144V9C83 6.79086 81.2091 5 79 5H67Z" fill="white"/>
<path d="M61 0L61.6402 -0.768221L61 -1.30171L60.3598 -0.768221L61 0ZM67 5L66.3598 5.76822L66.638 6H67V5ZM55 5V6H55.362L55.6402 5.76822L55 5ZM60.3598 0.768221L66.3598 5.76822L67.6402 4.23178L61.6402 -0.768221L60.3598 0.768221ZM55.6402 5.76822L61.6402 0.768221L60.3598 -0.768221L54.3598 4.23178L55.6402 5.76822ZM4 6H55V4H4V6ZM1 9C1 7.34315 2.34315 6 4 6V4C1.23858 4 -1 6.23858 -1 9H1ZM1 144V9H-1V144H1ZM4 147C2.34315 147 1 145.657 1 144H-1C-1 146.761 1.23858 149 4 149V147ZM79 147H4V149H79V147ZM82 144C82 145.657 80.6569 147 79 147V149C81.7614 149 84 146.761 84 144H82ZM82 9V144H84V9H82ZM79 6C80.6569 6 82 7.34315 82 9H84C84 6.23858 81.7614 4 79 4V6ZM67 6H79V4H67V6Z" fill="#F1F1F1" mask="url(#path-1-inside-1_3_14782)"/>
</svg>
