<svg width="21" height="21" fill="none" xmlns="http://www.w3.org/2000/svg"><path fill-rule="evenodd" clip-rule="evenodd" d="M5.793 11.441a13.254 13.254 0 005.766 5.766l1.925-1.925a.87.87 0 01.892-.21c.98.324 2.039.5 3.124.5.481 0 .875.393.875.874V19.5a.878.878 0 01-.875.875c-8.216 0-14.875-6.659-14.875-14.875 0-.481.394-.875.875-.875h3.063c.48 0 .875.394.875.875a9.94 9.94 0 00.498 3.124.878.878 0 01-.218.892l-1.925 1.925z" fill="#0E9E2F"/><mask id="a" style="mask-type:luminance" maskUnits="userSpaceOnUse" x="2" y="4" width="17" height="17"><path fill-rule="evenodd" clip-rule="evenodd" d="M5.793 11.441a13.254 13.254 0 005.766 5.766l1.925-1.925a.87.87 0 01.892-.21c.98.324 2.039.5 3.124.5.481 0 .875.393.875.874V19.5a.878.878 0 01-.875.875c-8.216 0-14.875-6.659-14.875-14.875 0-.481.394-.875.875-.875h3.063c.48 0 .875.394.875.875a9.94 9.94 0 00.498 3.124.878.878 0 01-.218.892l-1.925 1.925z" fill="#fff"/></mask><g mask="url(#a)"><path fill="#0E9E2F" d="M0 2h21v21H0z"/></g></svg>