<svg width="1400" height="270" fill="none" xmlns="http://www.w3.org/2000/svg"><path fill="#E5E5E5" d="M0 0h1400v270H0z"/><path fill="#686868" d="M0 1749V0h1400v1749z"/><g opacity=".05" fill="#fff"><path d="M1240.55-141.578l47.29-16.955 51.75-24.087 49.08-.896 41.94-24.094 47.29-16.058v-.89l-48.18 15.168-41.94 21.412-50.86-.89-51.76 23.198-48.18 15.168-.89-58.886-.89-81.201 4.46-53.54-6.25-40.152-.89-57.996h-.89l-.9 57.996 4.47 40.152-3.57 51.753-2.68 82.986-.89 58.887-40.15-12.492-53.55-16.058-11.59-8.03h-16.96l-77.62-24.093-.9.89 76.74 26.77 16.06.897 10.71 8.029 54.43 18.735 39.26 14.278-20.53 30.336-12.49 21.417-30.34 40.151-20.52 30.337-21.41 30.343.89.89 22.31-29.446 22.31-30.336 31.22-37.477 14.28-21.416 22.31-29.446 18.74 16.955 16.95 38.372 30.34 33.013 13.38 15.168 20.53 26.77v-.895l-17.85-26.764-11.6-16.956-29.44-33.908-15.18-37.477-17.84-19.632z"/><path d="M1240.55 16.355c-20.52 0-39.26-8.029-56.22-23.197-21.41-18.742-43.72-34.8-70.48-49.967-24.99-14.278-39.27-35.689-43.73-66.031-3.57-30.337 3.57-56.217 20.52-75.849 8.03-9.815 16.96-19.63 24.99-28.556 9.81-11.602 19.63-23.198 29.44-34.8 18.74-21.416 41.94-34.799 69.6-40.151 27.66-5.352 54.43-1.786 80.3 10.705 24.1 12.492 46.41 29.446 66.04 51.753 18.74 22.308 28.55 48.181 29.44 74.951.89 29.446-.89 57.107-6.25 82.98-5.35 27.66-20.52 49.078-45.5 64.246-25.88 15.168-52.65 25.873-79.42 31.233-5.34 1.786-12.48 2.683-18.73 2.683zm-.89-320.333c-8.03 0-16.06.891-24.09 2.677-27.66 5.353-50.87 18.741-69.6 40.151-9.82 11.602-19.63 23.198-29.45 34.8-8.03 9.815-16.95 19.63-24.98 28.556-16.96 19.631-24.1 45.506-20.52 75.848 4.46 30.337 18.74 51.754 43.72 66.032 26.77 15.168 49.08 31.233 70.49 49.967 21.41 19.63 46.4 26.77 74.95 20.52 27.66-5.352 53.54-16.057 79.41-31.233 24.99-15.168 40.15-36.585 45.51-64.245 5.35-25.873 7.14-53.541 6.25-82.98-.89-26.77-10.71-52.644-29.45-74.951-19.63-22.307-41.05-39.262-66.03-51.753-17.84-8.932-36.58-13.388-56.21-13.388v-.001z"/><path d="M1250.38 40.451c-9.82 0-19.64-.89-29.45-3.566-26.77-7.14-49.97-18.742-72.27-37.477a895.74 895.74 0 00-64.25-50.864c-22.31-16.058-34.8-38.365-37.48-67.812-2.67-29.446 1.79-57.107 14.28-80.303 11.6-23.199 29.45-42.829 52.65-60.673 23.19-17.844 44.61-34.8 65.13-51.753 21.42-17.844 46.4-23.198 74.06-16.955 27.66 6.249 53.54 16.955 77.63 31.233 23.2 14.278 42.83 33.013 58.89 56.216 16.06 22.307 24.1 48.181 24.99 76.737.89 25.874-.89 54.43-4.47 83.877-3.56 28.557-16.05 50.864-38.36 67.813-22.31 16.955-46.4 31.233-72.28 42.828-16.05 7.127-32.12 10.7-49.07 10.7v-.001zm-18.74-372.086c-19.63 0-37.48 6.249-52.64 19.63-20.52 16.955-41.94 33.909-65.14 51.753-23.2 17.845-41.05 37.477-52.64 60.673-12.49 23.198-16.96 49.967-14.28 80.303 2.68 29.446 15.17 51.753 37.48 67.813 22.3 16.06 43.72 33.013 64.24 50.864 22.31 18.741 45.51 30.336 72.27 37.476 26.78 7.14 52.65 4.463 78.53-7.14 25.87-11.6 49.96-25.872 72.27-42.828 22.31-16.955 34.8-39.262 38.37-67.812 3.56-29.446 5.35-57.996 4.46-83.877-.89-28.557-8.93-53.541-24.98-76.738-16.06-23.198-35.69-41.937-58.9-56.216-24.09-14.278-49.96-24.984-77.62-31.233-7.15-1.774-14.28-2.67-21.42-2.67v.002z"/><path d="M1237.87 68.112c-19.63 0-37.48-5.352-54.43-16.955-23.2-15.168-46.4-30.336-69.6-43.724-23.2-13.382-42.83-30.336-60.67-51.753-16.96-20.521-26.77-45.505-29.45-73.171-1.79-29.446.89-56.216 8.93-81.2 8.03-26.771 23.19-47.292 46.4-63.356 21.41-15.168 41.93-33.013 62.46-55.321 18.74-21.416 41.93-33.013 69.59-34.799 26.78-2.677 53.55.89 80.31 9.815 26.77 8.926 50.86 22.308 71.38 38.366 20.52 16.058 38.37 35.688 53.54 61.57 13.39 24.093 20.52 49.966 21.42 76.737 0 24.984-1.79 53.541-4.46 83.877-2.68 27.66-13.38 51.753-31.24 72.274-18.74 21.417-40.15 38.365-64.24 49.078-26.77 12.491-52.64 20.52-78.52 25.873-6.25 1.793-14.28 2.689-21.42 2.689zm-8.03-420.27c-6.25 0-11.6 0-17.85.89-27.66 1.787-50.86 13.382-69.59 34.8-20.53 22.307-41.05 40.151-62.46 55.32-23.2 16.058-38.37 36.586-46.4 63.356-8.03 24.985-10.71 51.753-8.93 81.201 2.68 27.66 12.49 52.643 29.45 73.17 17.84 21.417 37.47 38.366 60.67 51.754 23.2 13.382 46.4 28.556 69.6 43.724 23.2 15.168 47.29 19.63 75.85 14.278 25.87-5.353 51.75-13.382 78.52-25.873 24.09-10.706 45.5-27.66 64.24-49.078 17.85-20.521 28.56-44.615 31.24-72.274 2.67-30.337 4.46-58.893 4.46-83.877-.89-26.771-8.03-52.644-21.42-76.738-15.16-25.873-33.01-45.505-53.54-61.569-20.52-16.058-44.61-29.446-71.38-38.366-20.52-7.145-41.94-10.718-62.46-10.718z"/><path d="M1239.67 91.308c-23.2 0-43.73-7.139-62.46-20.52-24.1-17.845-49.97-33.91-77.63-48.182-27.66-15.168-50.86-33.908-67.81-57.106-17.85-24.094-27.66-50.864-30.34-82.98-2.676-30.337 0-61.57 8.03-91.906 8.03-31.234 25.87-54.43 52.64-68.709 27.66-16.058 51.76-35.688 70.49-58.893 19.63-24.093 45.51-37.476 76.74-39.262 32.12-1.786 62.46 1.786 91.01 11.602 30.34 9.815 57.11 24.984 79.42 43.724 24.09 19.63 43.72 42.828 58.89 69.598 15.17 27.66 23.2 56.216 23.2 85.664 0 29.445-1.79 59.783-3.57 91.015v2.677c-2.67 32.122-15.17 58.893-36.58 79.414-22.31 21.416-47.29 39.262-74.06 52.643-26.77 14.278-56.22 24.094-87.45 29.446-7.14.884-14.28 1.774-20.52 1.774v.001zm-15.17-468.454h-15.17c-31.23 1.787-57.11 15.169-76.74 39.263-18.74 23.198-42.83 42.828-70.49 58.893-26.77 15.168-44.61 37.476-52.64 68.708-8.03 30.336-10.705 61.57-8.03 91.906 2.68 32.123 12.49 58.893 30.34 82.98 16.95 23.198 40.15 41.938 67.81 57.107 27.66 14.278 53.54 30.336 77.63 48.18 24.09 17.845 51.75 24.094 82.98 18.742 31.23-5.353 60.67-15.168 87.44-29.446 26.77-13.382 51.75-31.233 74.06-52.643 21.42-20.522 33.91-47.292 36.59-79.415v-2.676c1.78-31.233 3.56-61.57 3.56-91.015 0-29.446-8.02-57.996-23.19-85.664-15.17-26.77-34.8-49.966-58.9-69.598-22.3-18.735-49.07-33.014-79.41-43.72-24.09-7.139-49.97-11.601-75.84-11.601v-.001z"/><path d="M1214.67 185.002c-33.02 0-59.79-9.816-83.88-30.337-22.31-19.63-47.29-35.688-77.63-49.966-27.66-12.492-52.64-29.446-75.846-52.644-21.416-20.521-37.476-46.4-49.077-77.628-10.706-29.452-16.956-59.788-19.631-91.912-2.676-30.337-.89-61.57 4.463-93.693 5.353-32.122 16.058-59.783 33.013-86.552 16.058-25.873 37.476-48.181 65.138-64.245 25.87-16.058 49.08-35.689 69.6-60.673 19.63-24.984 45.5-39.262 77.62-43.724 31.24-4.463 61.57-5.353 94.59-3.566 32.12 1.786 62.45 8.029 91.01 19.63 29.45 10.706 57.11 25.873 82.09 44.615 24.1 17.844 46.4 39.262 66.92 65.136 21.42 26.77 36.59 53.54 46.41 81.2 10.7 28.556 16.05 58.893 16.95 91.015.89 30.337-.89 60.673-4.46 93.693-4.47 29.445-12.49 60.672-23.2 91.015-10.71 29.446-29.45 54.43-54.43 73.171-24.09 18.742-50.86 36.586-79.41 50.864-30.34 16.058-58.9 26.77-86.56 33.013-33.01 8.017-63.35 11.59-93.68 11.59v-.002zm8.92-654.943c-22.31 0-43.73 1.786-65.14 4.463-33.01 4.462-58 18.741-77.63 43.724-19.63 24.984-43.72 44.614-69.6 60.672-27.655 16.058-49.074 38.366-65.132 64.245-16.955 26.771-27.659 54.43-33.013 86.553-5.353 32.122-7.139 63.356-4.463 93.692 2.677 32.123 8.926 62.46 19.631 91.906 11.601 31.234 27.659 57.107 49.077 77.628 23.2 23.198 48.18 40.152 75.85 52.644 30.33 14.278 55.32 30.336 77.63 49.967 24.09 20.521 50.86 30.336 83.87 30.336 29.45 0 60.68-3.566 93.7-11.602 27.66-6.249 56.21-16.955 86.55-33.013 28.55-14.278 55.32-32.122 79.41-50.864 24.99-18.741 43.73-43.724 54.43-73.171 10.71-30.336 18.74-61.57 23.2-91.016 3.57-33.013 5.35-63.355 4.46-93.692-.89-32.122-6.25-62.459-16.95-91.015-10.71-28.544-25.89-55.308-46.41-82.078-20.52-25.874-42.83-47.292-66.92-65.136-24.99-18.742-52.65-33.909-82.09-44.615-28.56-11.602-58.9-17.844-91.02-19.63h-29.44v.002z"/><path d="M1235.19 161.804c-22.31 0-43.72-3.567-66.03-11.602-28.56-9.816-55.32-24.984-80.3-46.401-25.88-22.307-50.87-40.151-76.74-56.216C985.348 30.63 965.717 6.536 954.122-23.8c-11.602-31.233-18.741-62.459-21.416-93.692-2.677-31.234-.89-63.356 4.462-96.368 5.353-31.233 19.631-58.893 41.938-81.2 22.304-22.307 44.614-44.615 66.034-66.922 22.3-23.198 46.4-42.829 73.17-57.996 28.56-16.058 58.89-24.984 89.23-26.77 30.33-2.677 61.57 0 94.58 8.925 30.34 8.029 58.89 20.521 87.44 37.476 28.56 17.845 52.65 37.477 73.17 60.673 21.42 24.094 38.37 50.864 50.87 80.303 12.49 30.337 18.74 60.673 19.63 92.796 0 28.556-1.79 59.783-4.46 97.258-4.47 32.122-14.28 62.459-27.66 90.12-14.28 28.556-34.8 50.864-62.46 68.708-26.77 16.058-55.32 31.234-84.77 45.505-28.56 13.382-58.89 21.417-91.91 24.985-8.93.915-17.85 1.805-26.78 1.805v-.002zm-6.24-610.329c-7.14 0-14.28 0-21.42.89-31.23 1.787-60.67 10.706-89.23 26.771-26.77 15.168-50.86 34.799-73.17 57.996-21.42 22.307-43.72 44.614-66.032 66.922-23.198 23.198-36.585 49.077-41.937 81.2-5.353 33.013-7.139 65.136-4.463 96.367 2.676 31.234 9.815 62.46 21.417 93.693 11.601 30.336 31.233 54.43 57.995 71.385 25.87 16.058 50.86 33.909 76.74 56.216 24.98 21.417 51.75 36.585 80.3 46.401 31.23 10.705 61.57 14.278 92.8 9.815 33.01-3.566 62.45-11.601 91.9-24.984 29.45-14.278 58-29.446 84.77-45.505 27.66-17.845 48.18-40.152 62.46-68.708 13.38-27.66 23.2-57.996 27.66-90.12 2.67-37.477 4.46-68.709 4.46-97.259-.89-32.122-7.14-62.459-19.63-92.795-12.49-29.446-29.45-56.216-50.86-80.303-20.53-23.198-44.62-42.829-73.18-60.673-28.55-16.955-57.1-29.446-87.44-37.476-25.85-6.262-49.95-9.834-73.14-9.834v.001z"/><path d="M1236.1 136.816c-21.42 0-41.94-3.566-61.57-10.705-26.77-9.816-51.75-24.985-73.17-44.615-20.52-18.741-44.62-36.586-71.39-50.864-25.87-14.278-44.611-35.688-55.317-63.356-10.706-25.873-17.845-54.43-20.522-85.663-1.786-32.123-.89-61.57 4.463-88.339 4.463-28.556 16.955-54.43 38.366-74.951 9.82-8.925 19.63-18.741 29.45-28.556 10.7-10.706 22.3-21.417 33.01-31.234 21.42-19.63 43.72-37.476 67.81-54.43 24.09-16.955 50.87-25.873 81.2-27.659 30.34-1.786 59.78.89 87.44 8.925 27.66 7.139 54.43 18.742 80.31 33.909 27.66 16.955 49.96 34.799 67.81 55.321 19.63 22.307 35.69 47.291 47.29 74.06 10.71 24.984 16.96 53.541 17.85 84.766.89 30.336-.89 58.893-6.25 87.443-3.57 29.446-11.6 57.107-24.1 83.877-12.49 25.874-31.23 47.292-57.1 63.356a659.562 659.562 0 01-77.63 42.829c-25.87 12.492-53.54 20.521-83.88 24.093-8.01 1.793-16.04 1.793-24.07 1.793zm-10.71-560.36c-5.35 0-11.6 0-16.95.89-30.34 1.787-57.11 10.706-81.2 27.66-24.1 16.955-46.4 34.799-67.81 54.43-10.71 10.705-22.31 21.416-33.02 31.233-9.81 9.816-19.63 18.741-29.443 28.557-21.417 21.416-33.909 46.4-38.366 74.951-5.353 27.659-6.249 56.216-4.463 88.338 2.677 31.234 9.816 59.784 20.522 85.664 10.705 27.659 29.45 49.077 55.32 63.356 26.77 14.278 50.86 32.122 71.39 50.863 21.41 19.631 46.4 34.8 73.17 44.615 26.77 9.816 55.32 12.492 85.66 8.925 30.34-3.566 58-11.601 83.88-24.093a657.765 657.765 0 0077.62-42.829c25.88-16.058 44.62-37.476 57.11-63.355 12.49-26.77 20.52-54.43 24.09-83.877 5.36-28.557 7.14-57.107 6.25-87.444-.89-31.233-7.14-59.783-17.84-84.766-11.6-26.77-27.66-51.753-47.29-74.06-17.85-20.521-40.15-38.366-67.81-55.321-25.88-15.168-52.65-26.77-80.31-33.908-22.32-7.152-45.52-9.828-70.5-9.828l-.01-.001z"/><path d="M1231.62 111.83h-15.17c-32.12-2.676-57.99-15.168-77.62-36.585-23.2-23.199-47.3-40.152-74.06-50.864-28.56-11.602-49.97-31.234-63.36-57.996-13.382-26.77-21.417-55.32-24.094-84.766-2.676-29.446-.89-59.784 5.353-90.12 5.353-30.337 21.421-54.43 46.401-70.488 24.09-16.058 46.4-35.689 66.03-59.784 18.74-23.198 41.94-40.152 70.49-50.864 29.44-9.815 58.89-13.382 87.44-8.925 28.56 3.566 57.11 11.601 85.67 24.984 28.55 12.492 52.64 29.445 73.17 49.967 21.41 20.521 38.36 44.614 52.64 72.274 14.28 28.556 20.52 57.106 20.52 85.663.89 25.873 0 54.43-3.56 88.339-2.68 30.336-12.5 57.995-29.45 82.09-16.96 25.874-38.37 44.615-65.14 58.893-27.66 15.169-55.32 26.77-82.09 36.586-22.31 7.139-47.3 11.596-73.17 11.596zm-3.57-513.068c-20.52 0-41.05 3.566-61.57 10.705-28.56 10.706-50.86 26.771-70.49 50.864-19.63 24.094-41.94 43.724-66.03 59.784-24.98 16.058-41.048 40.151-46.4 70.488-6.249 30.336-8.03 60.672-5.353 90.12 2.676 29.445 10.705 57.996 24.093 84.766 13.38 26.77 34.8 46.4 63.36 57.996 26.77 10.705 50.86 27.66 74.06 50.864 19.63 21.416 45.5 33.908 77.62 36.585 32.13 1.787 61.57-1.786 88.34-11.602 26.77-9.815 54.43-21.416 82.09-36.585 26.77-14.278 48.18-33.013 65.14-58.893 16.95-24.093 26.77-51.753 29.45-82.09 3.56-33.91 4.46-62.46 3.56-88.339 0-29.446-7.14-57.107-20.52-85.664-14.28-27.659-31.23-51.753-52.64-72.274-20.52-20.521-44.62-37.476-73.17-49.967-28.56-13.382-57.11-21.416-85.67-24.984-8.92-.877-17.84-1.774-25.87-1.774z"/><path d="M1233.4 207.311c-19.64 0-40.16-1.786-63.36-4.463-31.23-4.463-57.11-18.741-77.63-42.828-20.52-24.094-46.4-41.938-75.85-51.753-30.333-10.706-54.427-28.557-72.271-53.541-19.624-28.55-33.013-55.32-41.931-82.98-8.926-26.77-15.169-57.107-17.845-90.12-2.676-29.446-.89-59.784 4.463-91.016 5.353-29.445 14.278-57.995 26.77-88.338 12.492-29.446 33.014-50.864 61.57-64.245 29.444-13.382 51.754-33.909 67.814-61.57 16.95-28.557 40.15-45.505 70.49-53.541 29.44-8.925 58.89-14.278 91.01-16.955 31.24-2.676 61.57-.89 91.02 6.249 32.12 8.029 60.67 17.844 86.55 30.337 27.66 12.491 53.54 29.445 76.74 49.966 25.87 24.094 45.5 45.506 61.57 67.813 18.74 25.873 32.12 52.644 41.93 81.2 9.82 29.446 15.17 59.784 16.06 90.12 0 28.557-1.78 57.996-4.46 91.016-4.46 33.013-11.6 62.459-19.63 90.12-8.93 30.336-24.09 56.216-47.29 76.737-24.99 23.198-49.08 41.049-74.06 55.32a710.24 710.24 0 01-82.98 40.152c-26.77 10.706-56.22 17.844-89.23 20.521-9.82.903-19.64 1.799-29.45 1.799zm0-702.235c-8.93 0-17.85 0-25.88.891-32.12 2.676-61.57 8.029-91.01 16.955-30.34 8.029-53.54 25.873-70.49 53.54-16.06 27.66-38.37 48.181-67.814 61.57-28.557 13.382-49.078 34.8-61.57 64.245-13.382 30.337-21.417 58.893-26.77 88.339-5.353 31.233-7.14 61.57-4.463 91.015 2.676 33.014 8.925 62.46 17.844 90.12 8.925 27.66 23.198 54.43 41.938 82.091 17.844 24.984 41.938 42.829 72.275 53.541 29.44 9.816 55.32 27.659 75.85 51.753 20.52 24.093 46.4 38.365 77.62 42.828 34.8 4.463 64.25 6.25 92.8 3.567 33.01-2.676 62.46-9.816 89.23-20.521a709.972 709.972 0 0082.98-40.152c24.98-14.278 49.08-32.122 74.06-55.32 23.2-21.417 38.37-46.401 47.29-76.737 8.03-27.66 15.17-57.107 19.63-90.12 2.68-33.014 4.46-62.459 4.46-91.016-.89-31.233-6.24-60.673-16.05-90.12-9.82-28.557-23.2-54.43-41.94-81.2-16.06-22.308-35.69-43.724-61.57-67.813-23.2-20.521-49.08-37.476-76.74-49.967-25.87-12.491-54.43-22.307-86.55-30.336-22.3-4.475-43.72-7.152-65.14-7.152l.01-.001z"/><path d="M886.314 59.189c3.567-2.677 6.249-4.463 9.816-7.14-.89-.89-.89-1.786-1.786-2.676-3.567 1.787-7.14 2.677-10.706 4.463-16.955-28.557-29.446-58.893-38.365-91.016 7.139-2.676 14.278-6.248 22.307-8.925-8.029.89-16.058 1.786-23.198 2.676C835.456-75.55 831-107.674 831-141.584c8.029-.89 16.058-1.786 23.198-2.676-8.029-.89-16.058-1.787-23.198-2.677 0-33.013 4.463-66.031 12.492-98.155 8.023.902 16.058 1.792 23.191 2.683-7.139-2.677-14.278-6.25-22.307-8.926 8.926-32.123 21.417-62.459 37.476-91.015 3.567 1.786 7.14 2.676 10.706 4.462.89-.89.89-1.786 1.786-2.676-3.566-2.676-6.249-4.463-9.815-7.139 16.955-29.446 38.365-51.753 62.459-68.708 1.786-.89 3.566-2.677 5.353-3.567 3.566 2.677 7.139 5.353 11.601 8.926l-8.029-10.706c22.307-16.058 47.287-35.688 74.947-57.996.89-.89 1.79-1.786 3.57-2.676 2.68 3.566 5.35 7.139 8.93 11.602-1.79-4.463-3.57-8.926-5.36-13.382 27.66-22.308 57.11-37.477 87.45-46.401 2.67 7.139 6.25 14.278 8.92 22.307-.89-8.029-1.78-16.058-2.67-23.198 32.12-8.029 64.24-12.492 98.15-12.492.89 8.023 1.79 16.052 2.68 23.192.89-8.029 1.78-16.058 2.67-23.198 33.02 0 66.03 4.463 98.16 12.492-.89 8.029-1.79 16.058-2.68 23.198 2.68-7.139 6.25-14.278 8.93-22.308 32.12 8.926 62.46 21.417 91.01 37.477-2.67 7.139-6.25 14.278-8.92 22.307 4.46-6.249 9.81-12.492 14.28-18.741 28.55 16.955 54.43 36.585 78.52 59.783-5.35 5.353-9.82 11.602-14.28 17.845 6.25-4.463 12.49-9.816 18.74-14.278 23.2 23.198 42.83 49.966 59.79 78.523-6.25 4.463-12.5 9.815-18.74 14.278 7.13-2.676 14.27-6.249 22.3-8.925 16.06 28.562 28.55 58.899 37.47 91.021-7.14 2.677-14.28 6.249-22.31 8.926 8.03-.89 16.06-1.787 23.2-2.677 8.03 32.123 12.49 64.246 12.49 98.156-8.02.89-16.05 1.786-23.19 2.676 8.03.89 16.05 1.787 23.19 2.677 0 24.093-5.35 57.106-13.38 97.258-7.14-.89-15.17-1.786-22.3-2.677 7.13 2.677 14.27 6.25 21.41 8.926-3.56 16.955-8.03 34.8-13.38 54.43-3.57 14.278-8.03 27.66-13.38 41.049-7.14-2.677-14.28-6.25-21.42-8.926-.89.89-.89 1.786-1.78 2.676 6.24 4.463 12.49 9.816 18.74 14.279-14.28 31.233-33.91 57.106-58.9 79.414-6.25-5.353-13.38-9.816-19.63-15.169-.89.891-1.78 1.787-1.78 1.787 5.35 6.249 9.81 12.492 15.17 19.63-11.61 9.816-24.99 18.742-39.27 25.874-16.06 8.925-32.12 16.955-46.4 24.093-5.35-6.249-9.81-12.492-15.17-19.63 2.68 7.139 6.25 14.278 8.93 22.307-37.48 18.741-67.81 31.233-91.02 37.476-2.67-7.139-6.25-14.278-8.92-22.307.89 8.029 1.78 16.058 2.67 23.198-32.12 8.029-64.24 12.492-98.15 12.492-.89-8.03-1.79-16.058-2.68-23.198-.89 8.029-1.78 16.058-2.67 23.198-33.02 0-66.03-4.463-98.16-12.492.89-8.029 1.79-16.058 2.68-23.198-2.68 7.139-6.25 14.278-8.93 22.307-33.01-8.925-59.78-22.307-82.09-39.262-1.79-1.787-4.46-3.567-6.25-5.353 1.79-5.353 4.46-10.706 6.25-15.168-3.57 4.462-6.25 8.925-9.81 12.492-20.53-16.059-45.51-34.8-73.176-56.216-1.786-.891-3.566-2.677-5.352-3.567 3.566-4.463 6.249-8.925 9.815-12.492-4.463 3.567-8.925 7.139-13.382 9.816-27.653-20.534-49.065-45.517-65.129-72.287l-.002-.001zm717.406-227.535c-.89-33.013-6.25-65.136-16.96-96.367-10.7-31.234-24.98-60.673-44.61-87.444-19.63-26.77-41.05-50.863-66.03-73.171-24.99-22.307-51.76-40.151-82.09-53.541-30.34-13.381-60.68-24.984-92.8-32.122-32.12-7.139-64.24-9.816-97.26-6.249-33.01 2.676-65.13 8.925-98.15 18.741-33.02 8.926-58 27.66-74.95 56.216-16.96 28.557-39.267 48.181-68.712 62.459-29.446 14.278-51.753 37.476-66.032 67.813-14.278 30.336-24.984 62.459-30.336 94.581-6.249 32.123-8.029 65.136-6.249 98.156 1.786 33.013 8.029 65.135 18.741 96.367 10.706 31.234 24.984 60.673 42.829 88.339 18.741 27.66 43.724 47.291 75.848 58.893 32.121 11.601 58.891 29.445 82.091 54.43 22.31 24.984 50.86 40.151 83.88 45.505 33.01 5.354 66.03 7.139 99.04 4.463 33.01-2.677 64.25-8.926 95.48-21.417 30.34-11.602 59.78-25.873 88.34-42.828 28.56-16.956 54.43-36.586 79.41-58.893 24.1-22.308 41.94-49.967 51.76-81.2 9.81-31.234 16.95-63.356 22.3-96.368 3.56-31.221 5.35-64.239 4.46-96.363z"/></g></svg>